<svg width="33" height="32" viewBox="0 0 33 32" fill="none" xmlns="http://www.w3.org/2000/svg">
<path d="M23.4171 2.76367H10.1892C6.53636 2.76367 3.5752 5.72484 3.5752 9.37763V22.6055C3.5752 26.2583 6.53636 29.2195 10.1892 29.2195H23.4171C27.0699 29.2195 30.031 26.2583 30.031 22.6055V9.37763C30.031 5.72484 27.0699 2.76367 23.4171 2.76367Z" stroke="#9CA3AF" stroke-width="3.1747" stroke-linecap="round" stroke-linejoin="round"/>
<path d="M22.0944 15.1596C22.2577 16.2605 22.0696 17.3848 21.5571 18.3727C21.0445 19.3605 20.2335 20.1616 19.2394 20.662C18.2453 21.1623 17.1187 21.3365 16.0199 21.1597C14.9211 20.9829 13.906 20.4641 13.1191 19.6771C12.3321 18.8902 11.8134 17.8751 11.6365 16.7763C11.4597 15.6775 11.6339 14.551 12.1343 13.5568C12.6346 12.5627 13.4357 11.7517 14.4236 11.2391C15.4114 10.7266 16.5357 10.5385 17.6366 10.7018C18.7596 10.8683 19.7992 11.3916 20.6019 12.1943C21.4047 12.997 21.9279 14.0366 22.0944 15.1596Z" stroke="#9CA3AF" stroke-width="3.1747" stroke-linecap="round" stroke-linejoin="round"/>
<path d="M24.0791 8.71875H24.0913" stroke="#9CA3AF" stroke-width="3.1747" stroke-linecap="round" stroke-linejoin="round"/>
</svg>
