<svg width="32" height="32" viewBox="0 0 32 32" fill="none" xmlns="http://www.w3.org/2000/svg">
<path d="M3.38055 22.6078C2.45648 18.2469 2.45648 13.7408 3.38055 9.37991C3.50197 8.93705 3.73657 8.53342 4.06127 8.20872C4.38598 7.88401 4.7896 7.64942 5.23246 7.528C12.3272 6.35265 19.567 6.35265 26.6617 7.528C27.1045 7.64942 27.5082 7.88401 27.8329 8.20872C28.1576 8.53342 28.3922 8.93705 28.5136 9.37991C29.4377 13.7408 29.4377 18.2469 28.5136 22.6078C28.3922 23.0507 28.1576 23.4543 27.8329 23.779C27.5082 24.1037 27.1045 24.3383 26.6617 24.4597C19.567 25.6353 12.3272 25.6353 5.23246 24.4597C4.7896 24.3383 4.38598 24.1037 4.06127 23.779C3.73657 23.4543 3.50197 23.0507 3.38055 22.6078Z" stroke="#9CA3AF" stroke-width="3.1747" stroke-linecap="round" stroke-linejoin="round"/>
<path d="M13.3027 19.9621L19.9167 15.9938L13.3027 12.0254V19.9621Z" stroke="#9CA3AF" stroke-width="3.1747" stroke-linecap="round" stroke-linejoin="round"/>
</svg>
