<svg width="69" height="137" viewBox="0 0 69 137" fill="none" xmlns="http://www.w3.org/2000/svg">
<path d="M0 133.641C0 135.455 1.4713 136.934 3.28309 136.847C11.1572 136.469 18.9156 134.735 26.2138 131.712C34.5246 128.269 42.076 123.223 48.4368 116.863C54.7976 110.502 59.8433 102.95 63.2858 94.6396C66.7282 86.3288 68.5 77.4213 68.5 68.4258C68.5 59.4302 66.7282 50.5228 63.2858 42.212C59.8433 33.9012 54.7976 26.3498 48.4368 19.989C42.076 13.6282 34.5246 8.58248 26.2138 5.14003C18.9156 2.117 11.1572 0.382317 3.28309 0.00449954C1.4713 -0.0824344 0 1.39622 0 3.21009C0 5.02396 1.4715 6.48532 3.28282 6.58147C10.2939 6.95362 17.1989 8.51576 23.7001 11.2086C31.214 14.321 38.0412 18.8828 43.7921 24.6337C49.543 30.3845 54.1048 37.2118 57.2171 44.7257C60.3295 52.2395 61.9314 60.2928 61.9314 68.4258C61.9314 76.5587 60.3295 84.612 57.2171 92.1259C54.1048 99.6398 49.543 106.467 43.7921 112.218C38.0412 117.969 31.214 122.531 23.7001 125.643C17.1989 128.336 10.2939 129.898 3.28282 130.27C1.4715 130.366 0 131.828 0 133.641Z" fill="#FF3535"/>
</svg>
