<svg width="178" height="37" viewBox="0 0 178 37" fill="none" xmlns="http://www.w3.org/2000/svg">
<path d="M49.4544 27.0861C47.5613 27.0861 45.9454 26.4168 44.6068 25.0782C43.2683 23.7396 42.599 22.1142 42.599 20.2019C42.599 18.3088 43.2683 16.6929 44.6068 15.3543C45.9454 14.0157 47.5613 13.3464 49.4544 13.3464C51.0416 13.3464 52.4471 13.8245 53.671 14.7806C53.9769 15.0292 54.1586 15.3447 54.216 15.7272C54.2733 16.1097 54.1777 16.4539 53.9291 16.7598C53.6805 17.0658 53.365 17.2474 52.9826 17.3048C52.6192 17.3431 52.2846 17.2379 51.9786 16.9893C51.2137 16.4347 50.3723 16.1575 49.4544 16.1575C48.3453 16.1575 47.3892 16.559 46.586 17.3622C45.802 18.1462 45.41 19.0928 45.41 20.2019C45.41 21.3301 45.802 22.2958 46.586 23.099C47.3892 23.883 48.3453 24.275 49.4544 24.275C50.3914 24.275 51.2328 23.9882 51.9786 23.4145C52.2846 23.185 52.6192 23.099 52.9826 23.1563C53.365 23.1946 53.6805 23.3667 53.9291 23.6727C54.1777 23.9786 54.2733 24.3228 54.216 24.7053C54.1586 25.0877 53.9769 25.4033 53.671 25.6519C52.4471 26.608 51.0416 27.0861 49.4544 27.0861ZM59.1418 26.5984C58.874 26.8661 58.549 27 58.1665 27C57.7841 27 57.4494 26.8661 57.1626 26.5984C56.8949 26.3116 56.761 25.9865 56.761 25.6232V19.3127C56.761 17.6681 57.3442 16.2626 58.5107 15.0962C59.6963 13.9297 61.1114 13.3464 62.7559 13.3464C64.0372 13.3464 65.1941 13.7193 66.2267 14.4651C67.2593 15.1918 67.986 16.167 68.4067 17.3909C68.5405 17.7542 68.5214 18.108 68.3493 18.4522C68.1772 18.7964 67.9095 19.0354 67.5462 19.1693C67.1637 19.284 66.8004 19.2553 66.4562 19.0832C66.112 18.9111 65.8729 18.6434 65.7391 18.2801C65.5287 17.6299 65.1463 17.1136 64.5917 16.7311C64.0372 16.3296 63.4252 16.1288 62.7559 16.1288C61.8763 16.1288 61.121 16.4443 60.4899 17.0753C59.878 17.6873 59.572 18.4331 59.572 19.3127V25.6232C59.572 26.0056 59.4286 26.3307 59.1418 26.5984ZM71.4373 13.3751C71.8389 13.3751 72.1736 13.509 72.4413 13.7767C72.709 14.0444 72.8428 14.3791 72.8428 14.7806V21.005C72.8428 21.8656 73.1584 22.6114 73.7894 23.2424C74.4205 23.8543 75.1758 24.1603 76.0554 24.1603C76.9351 24.1603 77.6809 23.8543 78.2928 23.2424C78.9238 22.6114 79.2394 21.8656 79.2394 21.005V14.7806C79.2394 14.3791 79.3732 14.0444 79.6409 13.7767C79.9278 13.509 80.2624 13.3751 80.6449 13.3751C81.0273 13.3751 81.3524 13.509 81.6201 13.7767C81.907 14.0444 82.0504 14.3791 82.0504 14.7806V21.005C82.0504 22.6496 81.4576 24.0647 80.272 25.2503C79.1055 26.4168 77.7 27 76.0554 27C74.3918 27 72.9671 26.4168 71.7815 25.2503C70.6151 24.0647 70.0318 22.6496 70.0318 21.005V14.7806C70.0318 14.3791 70.1657 14.0444 70.4334 13.7767C70.7202 13.509 71.0549 13.3751 71.4373 13.3751ZM87.2722 11.3099C86.9663 11.635 86.5838 11.7975 86.1249 11.7975C85.6659 11.7975 85.2739 11.635 84.9488 11.3099C84.6429 10.9848 84.4899 10.5928 84.4899 10.1338C84.4899 9.67488 84.6429 9.29243 84.9488 8.98647C85.2739 8.66138 85.6659 8.49884 86.1249 8.49884C86.5838 8.49884 86.9663 8.66138 87.2722 8.98647C87.5782 9.29243 87.7312 9.67488 87.7312 10.1338C87.7312 10.5928 87.5782 10.9848 87.2722 11.3099ZM87.1001 26.5984C86.8133 26.8661 86.4786 27 86.0962 27C85.7137 27 85.3886 26.8661 85.1209 26.5984C84.8532 26.3116 84.7194 25.9769 84.7194 25.5945V14.8093C84.7194 14.4269 84.8532 14.1018 85.1209 13.8341C85.3886 13.5472 85.7137 13.4038 86.0962 13.4038C86.4786 13.4038 86.8133 13.5472 87.1001 13.8341C87.387 14.1018 87.5304 14.4269 87.5304 14.8093V25.5945C87.5304 25.9769 87.387 26.3116 87.1001 26.5984ZM90.9507 27C90.3579 27 89.9372 26.7418 89.6886 26.2255C89.4209 25.671 89.4783 25.1738 89.8607 24.734L96.4867 16.2722H91.1802C90.7786 16.2722 90.4344 16.1383 90.1476 15.8706C89.8799 15.5838 89.746 15.2491 89.746 14.8667C89.746 14.4651 89.8799 14.1305 90.1476 13.8627C90.4344 13.595 90.7786 13.4612 91.1802 13.4612H99.3551C99.9479 13.4612 100.369 13.7193 100.617 14.2356C100.866 14.7711 100.818 15.2683 100.474 15.7272L93.8478 24.189H99.7567C100.139 24.189 100.464 24.3324 100.732 24.6192C101 24.8869 101.134 25.212 101.134 25.5945C101.134 25.9769 101 26.3116 100.732 26.5984C100.464 26.8661 100.139 27 99.7567 27H90.9507ZM115.322 21.1198C115.284 21.1389 115.217 21.1485 115.121 21.1485L106.029 21.1772C106.22 22.0568 106.65 22.7739 107.319 23.3285C107.989 23.883 108.811 24.2177 109.786 24.3324C111.412 24.5236 112.817 24.1698 114.003 23.2711C114.902 22.9651 115.485 23.1277 115.752 23.7587C116.039 24.4662 115.781 25.0495 114.978 25.5084C113.659 26.694 111.794 27.1817 109.385 26.9713C107.549 26.7801 106.048 26.0439 104.881 24.7627C103.734 23.4623 103.16 21.9325 103.16 20.1732C103.16 18.2992 103.82 16.7025 105.139 15.383C106.459 14.0444 108.056 13.3751 109.93 13.3751C111.765 13.3751 113.314 13.9966 114.576 15.2396C115.839 16.4825 116.47 18.0028 116.47 19.8003C116.47 20.1254 116.355 20.4122 116.125 20.6608C115.915 20.9094 115.647 21.0624 115.322 21.1198ZM109.93 15.9567C108.954 15.9567 108.103 16.2531 107.377 16.8459C106.65 17.4196 106.191 18.2036 106 19.198L113.659 19.1693C113.525 18.2131 113.114 17.4387 112.425 16.8459C111.756 16.2531 110.924 15.9567 109.93 15.9567Z" fill="white"/>
<path d="M135.08 21.1198C135.042 21.1389 134.975 21.1485 134.879 21.1485L125.786 21.1772C125.977 22.0568 126.408 22.7739 127.077 23.3285C127.746 23.883 128.569 24.2177 129.544 24.3324C131.169 24.5236 132.575 24.1698 133.76 23.2711C134.659 22.9651 135.242 23.1277 135.51 23.7587C135.797 24.4662 135.539 25.0495 134.736 25.5084C133.416 26.694 131.552 27.1817 129.142 26.9713C127.306 26.7801 125.805 26.0439 124.639 24.7627C123.491 23.4623 122.918 21.9325 122.918 20.1732C122.918 18.2992 123.578 16.7025 124.897 15.383C126.216 14.0444 127.813 13.3751 129.687 13.3751C131.523 13.3751 133.072 13.9966 134.334 15.2396C135.596 16.4825 136.227 18.0028 136.227 19.8003C136.227 20.1254 136.112 20.4122 135.883 20.6608C135.673 20.9094 135.405 21.0624 135.08 21.1198ZM129.687 15.9567C128.712 15.9567 127.861 16.2531 127.134 16.8459C126.408 17.4196 125.949 18.2036 125.758 19.198L133.416 19.1693C133.282 18.2131 132.871 17.4387 132.183 16.8459C131.513 16.2531 130.682 15.9567 129.687 15.9567ZM151.417 20.2593V20.374V20.4601V25.6805C151.417 26.063 151.293 26.3881 151.044 26.6558C150.795 26.9235 150.499 27.0574 150.155 27.0574C149.791 27.0574 149.486 26.9235 149.237 26.6558C148.988 26.3881 148.864 26.063 148.864 25.6805V25.1642C147.583 26.4454 146.168 27.0861 144.619 27.0861C142.726 27.0861 141.11 26.4263 139.771 25.1069C138.452 23.7683 137.792 22.1524 137.792 20.2593C137.792 18.3852 138.452 16.7885 139.771 15.469C141.11 14.1305 142.726 13.4612 144.619 13.4612C146.493 13.4612 148.09 14.1305 149.409 15.469C150.748 16.8076 151.417 18.4044 151.417 20.2593ZM141.75 23.1277C142.554 23.9117 143.51 24.3037 144.619 24.3037C145.728 24.3037 146.674 23.9117 147.459 23.1277C148.243 22.3245 148.635 21.3684 148.635 20.2593C148.635 19.1502 148.243 18.2036 147.459 17.4196C146.674 16.6355 145.728 16.2435 144.619 16.2435C143.51 16.2435 142.554 16.6355 141.75 17.4196C140.966 18.2036 140.574 19.1502 140.574 20.2593C140.574 21.3684 140.966 22.3245 141.75 23.1277ZM158.364 27.0861C156.872 27.1052 155.247 26.6654 153.487 25.7666C153.143 25.6327 152.894 25.3937 152.742 25.0495C152.608 24.6862 152.608 24.3324 152.742 23.9882C152.875 23.6249 153.114 23.3763 153.459 23.2424C153.822 23.0894 154.176 23.0894 154.52 23.2424C155.036 23.5484 155.581 23.797 156.155 23.9882C156.729 24.1603 157.254 24.2655 157.733 24.3037C158.23 24.3228 158.689 24.2941 159.109 24.2177C159.53 24.122 159.855 23.9786 160.085 23.7874C160.333 23.577 160.458 23.3285 160.458 23.0416C160.458 22.6974 160.238 22.3819 159.798 22.095C159.358 21.7891 158.765 21.5596 158.019 21.4066C156.126 20.9286 154.816 20.288 154.09 19.4848C153.382 18.6816 153.067 17.8307 153.143 16.9319C153.22 15.8993 153.755 15.0483 154.749 14.3791C155.744 13.6906 156.929 13.3656 158.306 13.4038C159.664 13.4038 160.955 13.7576 162.179 14.4651C162.523 14.6181 162.762 14.8762 162.896 15.2396C163.03 15.6029 163.02 15.9471 162.867 16.2722C162.714 16.6164 162.456 16.865 162.092 17.018C161.748 17.1518 161.404 17.1327 161.06 16.9606C160.333 16.5017 159.578 16.2339 158.794 16.1575C158.01 16.081 157.379 16.1479 156.901 16.3582C156.442 16.5686 156.193 16.8459 156.155 17.1901C156.136 17.3431 156.174 17.5152 156.27 17.7064C156.384 17.8785 156.633 18.0888 157.015 18.3374C157.417 18.5669 157.933 18.7486 158.564 18.8824C161.853 19.7238 163.498 21.1102 163.498 23.0416C163.498 24.1125 163.058 25.0495 162.179 25.8526C161.299 26.6367 160.027 27.0478 158.364 27.0861ZM176.649 13.5759C176.993 13.7289 177.232 13.987 177.366 14.3504C177.5 14.7137 177.49 15.0866 177.337 15.469L170.31 31.3026C170.042 31.8572 169.612 32.1344 169.019 32.1344C168.79 32.1344 168.589 32.0962 168.417 32.0197C168.053 31.8667 167.805 31.599 167.671 31.2165C167.556 30.8532 167.575 30.4994 167.728 30.1552L169.65 25.824L164.86 15.469C164.688 15.1057 164.659 14.7424 164.774 14.3791C164.908 13.9966 165.156 13.7289 165.52 13.5759C165.864 13.4038 166.218 13.3847 166.581 13.5185C166.963 13.6524 167.231 13.8914 167.384 14.2356L171.17 22.3819L174.756 14.293C174.909 13.9105 175.167 13.6524 175.53 13.5185C175.894 13.3847 176.266 13.4038 176.649 13.5759Z" fill="white"/>
<rect y="1.8125" width="34.2186" height="34.2186" rx="4.59653" fill="white"/>
<path d="M15.4716 8.60156C17.8811 8.12881 20.3807 8.51532 22.5341 9.69531C24.0284 10.5142 25.2929 11.7769 26.2274 13.2402C26.8485 14.2133 26.2707 15.4531 25.1415 15.8125C24.1253 16.1359 23.0613 15.5844 22.4315 14.6836C21.9817 14.0403 21.4181 13.4953 20.6747 13.0879C19.3153 12.343 17.7377 12.0981 16.2167 12.3965C14.6955 12.6949 13.3276 13.5183 12.3505 14.7217C11.3734 15.925 10.8489 17.4326 10.869 18.9824C10.8892 20.5324 11.4526 22.0266 12.4608 23.2041C13.469 24.3816 14.8582 25.1681 16.3866 25.4268C17.9149 25.6854 19.4856 25.4001 20.8251 24.6201C21.5862 24.1768 22.1312 23.6138 22.5555 22.9453C23.1119 22.0687 24.0814 21.5029 25.0604 21.7412C26.2168 22.0227 26.8612 23.2466 26.2831 24.2549C25.4146 25.7691 24.2337 27.1118 22.7723 27.9629C20.6505 29.1986 18.1621 29.6509 15.7411 29.2412C13.3201 28.8314 11.1193 27.5849 9.52234 25.7197C7.92546 23.8546 7.03288 21.4884 7.00085 19.0332C6.96884 16.5779 7.79973 14.1894 9.34753 12.2832C10.8952 10.3771 13.0622 9.0744 15.4716 8.60156Z" fill="#FF3535" stroke="#FF3535" stroke-width="0.211951"/>
<circle cx="17.1094" cy="18.9209" r="3.38764" fill="#FF3535" stroke="#FF3535" stroke-width="0.0684373"/>
<path d="M10.8274 21.692V15.9463L11.9765 15.4229C11.9765 15.4229 11.5621 15.9613 11.6892 16.3294C11.9308 17.0289 12.4177 17.3717 13.1576 17.3827C13.8154 17.3925 14.6578 16.6166 14.6578 16.6166V21.2451C14.6578 21.2451 13.8207 20.3535 13.1257 20.3514C12.3503 20.349 11.8595 20.7613 11.6254 21.5005C11.505 21.8808 12.0531 22.5475 12.0531 22.5475L10.8274 21.692Z" fill="#FF3535" stroke="#FF3535" stroke-width="0.0638407" stroke-linecap="round"/>
</svg>
