<svg width="252" height="51" viewBox="0 0 252 51" fill="none" xmlns="http://www.w3.org/2000/svg">
<path d="M70.0142 38.1218C67.3341 38.1218 65.0464 37.1743 63.1514 35.2792C61.2563 33.3841 60.3087 31.083 60.3087 28.3757C60.3087 25.6955 61.2563 23.4079 63.1514 21.5128C65.0464 19.6178 67.3341 18.6702 70.0142 18.6702C72.2613 18.6702 74.2511 19.347 75.9837 20.7007C76.4169 21.0526 76.6741 21.4993 76.7553 22.0408C76.8365 22.5822 76.7011 23.0695 76.3492 23.5027C75.9973 23.9358 75.5506 24.193 75.0091 24.2742C74.4947 24.3284 74.021 24.1795 73.5878 23.8275C72.5049 23.0424 71.3137 22.6499 70.0142 22.6499C68.444 22.6499 67.0904 23.2184 65.9534 24.3555C64.8434 25.4654 64.2884 26.8055 64.2884 28.3757C64.2884 29.973 64.8434 31.3402 65.9534 32.4772C67.0904 33.5872 68.444 34.1422 70.0142 34.1422C71.3408 34.1422 72.532 33.7361 73.5878 32.9239C74.021 32.599 74.4947 32.4772 75.0091 32.5584C75.5506 32.6126 75.9973 32.8562 76.3492 33.2894C76.7011 33.7225 76.8365 34.2098 76.7553 34.7513C76.6741 35.2927 76.4169 35.7394 75.9837 36.0914C74.2511 37.445 72.2613 38.1218 70.0142 38.1218ZM83.7289 37.4315C83.3499 37.8105 82.8897 38 82.3482 38C81.8067 38 81.333 37.8105 80.9269 37.4315C80.5479 37.0254 80.3584 36.5652 80.3584 36.0508V27.1168C80.3584 24.7886 81.1841 22.7988 82.8355 21.1474C84.514 19.4959 86.5174 18.6702 88.8456 18.6702C90.6595 18.6702 92.2973 19.1981 93.7593 20.254C95.2212 21.2827 96.2499 22.6634 96.8455 24.3961C97.035 24.9104 97.008 25.4113 96.7643 25.8986C96.5207 26.3859 96.1416 26.7243 95.6273 26.9138C95.0858 27.0762 94.5714 27.0356 94.0841 26.792C93.5968 26.5483 93.2584 26.1693 93.0689 25.6549C92.7711 24.7345 92.2297 24.0035 91.4446 23.4621C90.6595 22.8935 89.7931 22.6093 88.8456 22.6093C87.6003 22.6093 86.5309 23.056 85.6375 23.9494C84.7712 24.8157 84.338 25.8715 84.338 27.1168V36.0508C84.338 36.5922 84.135 37.0525 83.7289 37.4315ZM101.136 18.7108C101.705 18.7108 102.178 18.9003 102.557 19.2794C102.936 19.6584 103.126 20.1321 103.126 20.7007V29.5128C103.126 30.731 103.573 31.7869 104.466 32.6803C105.359 33.5466 106.429 33.9797 107.674 33.9797C108.919 33.9797 109.975 33.5466 110.842 32.6803C111.735 31.7869 112.182 30.731 112.182 29.5128V20.7007C112.182 20.1321 112.371 19.6584 112.75 19.2794C113.156 18.9003 113.63 18.7108 114.172 18.7108C114.713 18.7108 115.173 18.9003 115.552 19.2794C115.958 19.6584 116.161 20.1321 116.161 20.7007V29.5128C116.161 31.841 115.322 33.8444 113.644 35.5229C111.992 37.1743 110.002 38 107.674 38C105.319 38 103.302 37.1743 101.623 35.5229C99.972 33.8444 99.1463 31.841 99.1463 29.5128V20.7007C99.1463 20.1321 99.3358 19.6584 99.7148 19.2794C100.121 18.9003 100.595 18.7108 101.136 18.7108ZM123.554 15.787C123.121 16.2472 122.579 16.4773 121.93 16.4773C121.28 16.4773 120.725 16.2472 120.265 15.787C119.832 15.3268 119.615 14.7718 119.615 14.122C119.615 13.4723 119.832 12.9308 120.265 12.4977C120.725 12.0375 121.28 11.8073 121.93 11.8073C122.579 11.8073 123.121 12.0375 123.554 12.4977C123.987 12.9308 124.204 13.4723 124.204 14.122C124.204 14.7718 123.987 15.3268 123.554 15.787ZM123.31 37.4315C122.904 37.8105 122.431 38 121.889 38C121.348 38 120.887 37.8105 120.508 37.4315C120.129 37.0254 119.94 36.5516 119.94 36.0102V20.7413C119.94 20.1998 120.129 19.7396 120.508 19.3606C120.887 18.9545 121.348 18.7514 121.889 18.7514C122.431 18.7514 122.904 18.9545 123.31 19.3606C123.716 19.7396 123.92 20.1998 123.92 20.7413V36.0102C123.92 36.5516 123.716 37.0254 123.31 37.4315ZM128.762 38C127.923 38 127.327 37.6345 126.975 36.9036C126.596 36.1185 126.677 35.4146 127.219 34.7919L136.599 22.8123H129.087C128.518 22.8123 128.031 22.6228 127.625 22.2438C127.246 21.8377 127.056 21.3639 127.056 20.8225C127.056 20.254 127.246 19.7802 127.625 19.4012C128.031 19.0222 128.518 18.8327 129.087 18.8327H140.66C141.499 18.8327 142.095 19.1981 142.447 19.9291C142.799 20.6871 142.731 21.391 142.244 22.0408L132.863 34.0203H141.229C141.77 34.0203 142.23 34.2234 142.609 34.6295C142.988 35.0085 143.178 35.4687 143.178 36.0102C143.178 36.5516 142.988 37.0254 142.609 37.4315C142.23 37.8105 141.77 38 141.229 38H128.762ZM163.265 29.6752C163.211 29.7023 163.116 29.7158 162.981 29.7158L150.108 29.7564C150.379 31.0018 150.988 32.017 151.935 32.8021C152.883 33.5872 154.047 34.0609 155.428 34.2234C157.729 34.4941 159.719 33.9933 161.397 32.7209C162.67 32.2877 163.495 32.5178 163.874 33.4112C164.281 34.4129 163.915 35.2386 162.778 35.8883C160.91 37.5668 158.27 38.2572 154.859 37.9594C152.26 37.6887 150.135 36.6464 148.484 34.8325C146.859 32.9916 146.047 30.8258 146.047 28.3351C146.047 25.682 146.981 23.4214 148.849 21.5534C150.717 19.6584 152.978 18.7108 155.631 18.7108C158.23 18.7108 160.423 19.5907 162.209 21.3504C163.996 23.1101 164.89 25.2624 164.89 27.8072C164.89 28.2674 164.727 28.6735 164.402 29.0255C164.105 29.3774 163.726 29.594 163.265 29.6752ZM155.631 22.3656C154.25 22.3656 153.045 22.7852 152.017 23.6245C150.988 24.4367 150.338 25.5466 150.067 26.9544L160.91 26.9138C160.72 25.5602 160.138 24.4637 159.164 23.6245C158.216 22.7852 157.039 22.3656 155.631 22.3656Z" fill="black"/>
<path d="M191.237 29.6752C191.183 29.7023 191.088 29.7158 190.953 29.7158L178.08 29.7564C178.35 31.0018 178.959 32.017 179.907 32.8021C180.855 33.5872 182.019 34.0609 183.399 34.2234C185.7 34.4941 187.69 33.9933 189.369 32.7209C190.641 32.2877 191.467 32.5178 191.846 33.4112C192.252 34.4129 191.887 35.2386 190.75 35.8883C188.882 37.5668 186.242 38.2572 182.831 37.9594C180.232 37.6887 178.107 36.6464 176.455 34.8325C174.831 32.9916 174.019 30.8258 174.019 28.3351C174.019 25.682 174.953 23.4214 176.821 21.5534C178.689 19.6584 180.949 18.7108 183.602 18.7108C186.201 18.7108 188.394 19.5907 190.181 21.3504C191.968 23.1101 192.861 25.2624 192.861 27.8072C192.861 28.2674 192.699 28.6735 192.374 29.0255C192.076 29.3774 191.697 29.594 191.237 29.6752ZM183.602 22.3656C182.222 22.3656 181.017 22.7852 179.988 23.6245C178.959 24.4367 178.31 25.5466 178.039 26.9544L188.882 26.9138C188.692 25.5602 188.11 24.4637 187.135 23.6245C186.188 22.7852 185.01 22.3656 183.602 22.3656ZM214.366 28.4569V28.6194V28.7412V36.132C214.366 36.6734 214.19 37.1337 213.838 37.5127C213.486 37.8917 213.066 38.0812 212.579 38.0812C212.065 38.0812 211.631 37.8917 211.279 37.5127C210.928 37.1337 210.752 36.6734 210.752 36.132V35.401C208.938 37.2149 206.934 38.1218 204.741 38.1218C202.061 38.1218 199.774 37.1878 197.879 35.3198C196.011 33.4247 195.077 31.1371 195.077 28.4569C195.077 25.8038 196.011 23.5433 197.879 21.6753C199.774 19.7802 202.061 18.8327 204.741 18.8327C207.395 18.8327 209.655 19.7802 211.523 21.6753C213.418 23.5703 214.366 25.8309 214.366 28.4569ZM200.681 32.5178C201.818 33.6278 203.171 34.1828 204.741 34.1828C206.312 34.1828 207.652 33.6278 208.762 32.5178C209.872 31.3808 210.427 30.0271 210.427 28.4569C210.427 26.8867 209.872 25.5466 208.762 24.4367C207.652 23.3267 206.312 22.7717 204.741 22.7717C203.171 22.7717 201.818 23.3267 200.681 24.4367C199.571 25.5466 199.016 26.8867 199.016 28.4569C199.016 30.0271 199.571 31.3808 200.681 32.5178ZM224.2 38.1218C222.089 38.1489 219.788 37.5262 217.297 36.2538C216.81 36.0643 216.458 35.7259 216.241 35.2386C216.052 34.7242 216.052 34.2234 216.241 33.7361C216.431 33.2217 216.769 32.8698 217.256 32.6803C217.771 32.4637 218.271 32.4637 218.759 32.6803C219.49 33.1134 220.261 33.4654 221.073 33.7361C221.886 33.9797 222.63 34.1286 223.307 34.1828C224.011 34.2098 224.661 34.1692 225.256 34.0609C225.852 33.9256 226.312 33.7225 226.637 33.4518C226.989 33.154 227.165 32.8021 227.165 32.396C227.165 31.9087 226.853 31.462 226.231 31.0559C225.608 30.6227 224.769 30.2979 223.713 30.0813C221.033 29.4045 219.178 28.4975 218.15 27.3605C217.148 26.2235 216.701 25.0187 216.81 23.7463C216.918 22.2844 217.676 21.0797 219.084 20.1321C220.491 19.1575 222.17 18.6973 224.119 18.7514C226.041 18.7514 227.869 19.2523 229.601 20.254C230.089 20.4705 230.427 20.836 230.617 21.3504C230.806 21.8648 230.793 22.3521 230.576 22.8123C230.359 23.2996 229.994 23.6516 229.479 23.8681C228.992 24.0577 228.505 24.0306 228.018 23.7869C226.989 23.1372 225.919 22.7582 224.809 22.6499C223.7 22.5416 222.806 22.6363 222.129 22.9341C221.48 23.2319 221.128 23.6245 221.073 24.1118C221.046 24.3284 221.101 24.572 221.236 24.8428C221.398 25.0864 221.75 25.3842 222.292 25.7362C222.86 26.061 223.591 26.3182 224.485 26.5077C229.141 27.6989 231.469 29.6617 231.469 32.396C231.469 33.9121 230.847 35.2386 229.601 36.3756C228.356 37.4856 226.556 38.0677 224.2 38.1218ZM250.087 18.9951C250.575 19.2117 250.913 19.5772 251.103 20.0915C251.292 20.6059 251.279 21.1338 251.062 21.6753L241.113 44.0913C240.734 44.8764 240.125 45.269 239.286 45.269C238.961 45.269 238.676 45.2148 238.433 45.1065C237.918 44.89 237.566 44.5109 237.377 43.9695C237.215 43.4551 237.242 42.9543 237.458 42.467L240.179 36.335L233.397 21.6753C233.154 21.1609 233.113 20.6465 233.275 20.1321C233.465 19.5907 233.817 19.2117 234.331 18.9951C234.819 18.7514 235.319 18.7244 235.834 18.9139C236.375 19.1034 236.754 19.4418 236.971 19.9291L242.331 31.462L247.407 20.0103C247.624 19.4689 247.989 19.1034 248.504 18.9139C249.018 18.7244 249.546 18.7514 250.087 18.9951Z" fill="black"/>
<rect y="2.56445" width="48.4444" height="48.4444" rx="6.50745" fill="#FA3434"/>
<path d="M21.9045 12.1758C25.3158 11.5065 28.854 12.055 31.9026 13.7256C34.0181 14.8849 35.8081 16.6715 37.1311 18.7432C38.0109 20.1208 37.1929 21.8769 35.594 22.3857C34.1553 22.8436 32.6497 22.0624 31.7581 20.7871C31.1212 19.8763 30.3232 19.1051 29.2708 18.5283C27.3463 17.4737 25.1127 17.1274 22.9592 17.5498C20.8057 17.9723 18.868 19.1371 17.4846 20.8408C16.1014 22.5445 15.3593 24.6797 15.3879 26.874C15.4166 29.0683 16.2146 31.1827 17.6418 32.8496C19.0692 34.5166 21.0356 35.6308 23.1995 35.9971C25.3633 36.3633 27.5873 35.959 29.4836 34.8545C30.5613 34.2268 31.3321 33.429 31.9329 32.4824C32.7205 31.2418 34.093 30.4412 35.4788 30.7783C37.1161 31.1768 38.0289 32.9103 37.2102 34.3379C35.9807 36.4816 34.3083 38.381 32.2395 39.5859C29.2356 41.3355 25.713 41.9766 22.2854 41.3965C18.858 40.8164 15.7426 39.0525 13.4817 36.4121C11.2208 33.7715 9.95775 30.4212 9.91235 26.9453C9.86701 23.4693 11.0423 20.0874 13.2336 17.3887C15.4249 14.69 18.4933 12.8451 21.9045 12.1758Z" fill="white" stroke="white" stroke-width="0.300066"/>
<circle cx="24.2222" cy="26.7878" r="4.79599" fill="white" stroke="white" stroke-width="0.0968887"/>
<path d="M15.3287 30.7094V22.5751L16.9556 21.834C16.9556 21.834 16.3689 22.5962 16.5489 23.1174C16.8908 24.1077 17.5801 24.593 18.6277 24.6087C19.5589 24.6225 20.7516 23.5241 20.7516 23.5241V30.0767C20.7516 30.0767 19.5665 28.8144 18.5825 28.8114C17.4847 28.808 16.7899 29.3918 16.4585 30.4383C16.288 30.9767 17.0641 31.9205 17.0641 31.9205L15.3287 30.7094Z" fill="white" stroke="white" stroke-width="0.0903813" stroke-linecap="round"/>
</svg>
