<svg width="37" height="37" viewBox="0 0 37 37" fill="none" xmlns="http://www.w3.org/2000/svg">
<rect width="36.7628" height="36.7628" rx="4.93828" fill="white"/>
<path d="M16.623 7.29395C19.2116 6.78615 21.8966 7.20201 24.21 8.46973C25.8153 9.34954 27.1738 10.7053 28.1777 12.2773C28.8451 13.3227 28.224 14.6549 27.0107 15.041C25.919 15.3883 24.7762 14.7958 24.0996 13.8281C23.6163 13.137 23.0106 12.5519 22.2119 12.1143C20.7516 11.3141 19.0569 11.0505 17.4229 11.3711C15.7886 11.6917 14.3183 12.5763 13.2686 13.8691C12.2189 15.162 11.656 16.7821 11.6777 18.4473C11.6995 20.1125 12.3046 21.7174 13.3877 22.9824C14.4708 24.2474 15.9635 25.0922 17.6055 25.3701C19.2475 25.648 20.9349 25.3411 22.374 24.5029C23.1916 24.0267 23.7766 23.4222 24.2324 22.7041C24.8301 21.7623 25.872 21.1542 26.9238 21.4102C28.1664 21.7126 28.8586 23.028 28.2373 24.1113C27.3042 25.7381 26.0358 27.1803 24.4658 28.0947C22.1863 29.4224 19.5131 29.9079 16.9121 29.4678C14.3111 29.0276 11.9462 27.6894 10.2305 25.6855C8.51472 23.6817 7.55687 21.1388 7.52246 18.501C7.48812 15.8633 8.37922 13.2969 10.042 11.249C11.7049 9.20108 14.0344 7.80185 16.623 7.29395Z" fill="#FF3535" stroke="#FF3535" stroke-width="0.22771"/>
<circle cx="18.3814" cy="18.3814" r="3.63952" fill="#FF3535" stroke="#FF3535" stroke-width="0.0735256"/>
<path d="M11.6323 21.3583V15.1854L12.8669 14.623C12.8669 14.623 12.4217 15.2015 12.5583 15.597C12.8177 16.3485 13.3408 16.7168 14.1358 16.7286C14.8424 16.7392 15.7476 15.9056 15.7476 15.9056V20.8782C15.7476 20.8782 14.8482 19.9203 14.1015 19.918C13.2684 19.9154 12.7411 20.3584 12.4897 21.1526C12.3603 21.5611 12.9492 22.2774 12.9492 22.2774L11.6323 21.3583Z" fill="#FF3535" stroke="#FF3535" stroke-width="0.0685873" stroke-linecap="round"/>
</svg>
