<svg width="72" height="72" viewBox="0 0 72 72" fill="none" xmlns="http://www.w3.org/2000/svg">
<rect x="0.000488281" width="71.0664" height="71.0664" rx="9.54624" fill="#FA3434"/>
<path d="M32.1343 14.1006C37.1384 13.1188 42.3282 13.9234 46.8003 16.374C49.9038 18.0748 52.5303 20.6952 54.4712 23.7344C55.7617 25.7552 54.5616 28.3305 52.2163 29.0771C50.1059 29.7488 47.8965 28.604 46.5884 26.7334C45.6541 25.3973 44.4839 24.2651 42.9399 23.4189C40.1168 21.8718 36.8402 21.3637 33.6812 21.9834C30.522 22.6032 27.6802 24.3123 25.6509 26.8115C23.6216 29.3107 22.5328 32.4421 22.5747 35.6611C22.6167 38.8803 23.7865 41.9832 25.8804 44.4287C27.9742 46.8741 30.8595 48.5077 34.0337 49.0449C37.208 49.5821 40.4705 48.9884 43.2524 47.3682C44.8332 46.4474 45.964 45.2781 46.8452 43.8896C48.0007 42.0694 50.0143 40.8949 52.0474 41.3896C54.4493 41.9742 55.7882 44.5172 54.5874 46.6113C52.7837 49.7561 50.3303 52.5429 47.2954 54.3105C42.8887 56.8771 37.721 57.8168 32.6929 56.9658C27.6649 56.1148 23.0945 53.5269 19.7778 49.6533C16.4613 45.7797 14.6081 40.8656 14.5415 35.7666C14.475 30.6675 16.1991 25.7059 19.4136 21.7471C22.6281 17.7882 27.13 15.0824 32.1343 14.1006Z" fill="white" stroke="white" stroke-width="0.440187"/>
<circle cx="35.5334" cy="35.5344" r="7.03557" fill="white" stroke="white" stroke-width="0.142133"/>
<path d="M22.4868 41.2856V29.3528L24.8734 28.2656C24.8734 28.2656 24.0127 29.3838 24.2767 30.1484C24.7784 31.6011 25.7895 32.3131 27.3262 32.336C28.6923 32.3563 30.442 30.7449 30.442 30.7449V40.3575C30.442 40.3575 28.7035 38.5057 27.2599 38.5013C25.6496 38.4964 24.6303 39.3527 24.1441 40.8879C23.8941 41.6777 25.0325 43.0623 25.0325 43.0623L22.4868 41.2856Z" fill="white" stroke="white" stroke-width="0.132587" stroke-linecap="round"/>
</svg>
