<svg width="321" height="65" viewBox="0 0 321 65" fill="none" xmlns="http://www.w3.org/2000/svg">
<path d="M89.1853 48.1552C85.7712 48.1552 82.8572 46.9482 80.4432 44.5342C78.0293 42.1203 76.8223 39.189 76.8223 35.7405C76.8223 32.3265 78.0293 29.4125 80.4432 26.9985C82.8572 24.5845 85.7712 23.3775 89.1853 23.3775C92.0475 23.3775 94.5822 24.2397 96.7892 25.9639C97.341 26.4122 97.6686 26.9813 97.7721 27.671C97.8755 28.3607 97.7031 28.9814 97.2548 29.5332C96.8065 30.0849 96.2375 30.4125 95.5478 30.516C94.8926 30.585 94.2891 30.3953 93.7373 29.947C92.3579 28.9469 90.8405 28.4469 89.1853 28.4469C87.1851 28.4469 85.4609 29.1711 84.0125 30.6194C82.5986 32.0333 81.8916 33.7404 81.8916 35.7405C81.8916 37.7751 82.5986 39.5166 84.0125 40.965C85.4609 42.3789 87.1851 43.0859 89.1853 43.0859C90.875 43.0859 92.3924 42.5686 93.7373 41.534C94.2891 41.1202 94.8926 40.965 95.5478 41.0685C96.2375 41.1374 96.8065 41.4478 97.2548 41.9996C97.7031 42.5513 97.8755 43.1721 97.7721 43.8618C97.6686 44.5515 97.341 45.1205 96.7892 45.5688C94.5822 47.2931 92.0475 48.1552 89.1853 48.1552ZM106.655 47.2758C106.172 47.7586 105.586 48 104.896 48C104.207 48 103.603 47.7586 103.086 47.2758C102.603 46.7585 102.362 46.1723 102.362 45.5171V34.1369C102.362 31.1712 103.414 28.6365 105.517 26.5329C107.655 24.4293 110.207 23.3775 113.173 23.3775C115.483 23.3775 117.57 24.05 119.432 25.3949C121.294 26.7054 122.605 28.4641 123.363 30.6712C123.605 31.3264 123.57 31.9644 123.26 32.5851C122.949 33.2058 122.467 33.6369 121.811 33.8783C121.122 34.0852 120.466 34.0335 119.846 33.7231C119.225 33.4127 118.794 32.93 118.553 32.2747C118.173 31.1022 117.483 30.1711 116.483 29.4814C115.483 28.7572 114.38 28.3951 113.173 28.3951C111.587 28.3951 110.224 28.9642 109.086 30.1022C107.983 31.2057 107.431 32.5506 107.431 34.1369V45.5171C107.431 46.2068 107.172 46.793 106.655 47.2758ZM128.829 23.4293C129.553 23.4293 130.156 23.6707 130.639 24.1535C131.122 24.6363 131.363 25.2397 131.363 25.9639V37.1889C131.363 38.7407 131.932 40.0856 133.07 41.2237C134.208 42.3272 135.57 42.8789 137.157 42.8789C138.743 42.8789 140.088 42.3272 141.192 41.2237C142.33 40.0856 142.899 38.7407 142.899 37.1889V25.9639C142.899 25.2397 143.14 24.6363 143.623 24.1535C144.14 23.6707 144.744 23.4293 145.433 23.4293C146.123 23.4293 146.709 23.6707 147.192 24.1535C147.709 24.6363 147.968 25.2397 147.968 25.9639V37.1889C147.968 40.1546 146.899 42.7065 144.761 44.8446C142.657 46.9482 140.122 48 137.157 48C134.157 48 131.587 46.9482 129.449 44.8446C127.346 42.7065 126.294 40.1546 126.294 37.1889V25.9639C126.294 25.2397 126.535 24.6363 127.018 24.1535C127.535 23.6707 128.139 23.4293 128.829 23.4293ZM157.385 19.7049C156.833 20.2911 156.143 20.5842 155.316 20.5842C154.488 20.5842 153.781 20.2911 153.195 19.7049C152.643 19.1186 152.367 18.4117 152.367 17.584C152.367 16.7564 152.643 16.0667 153.195 15.5149C153.781 14.9287 154.488 14.6355 155.316 14.6355C156.143 14.6355 156.833 14.9287 157.385 15.5149C157.937 16.0667 158.212 16.7564 158.212 17.584C158.212 18.4117 157.937 19.1186 157.385 19.7049ZM157.074 47.2758C156.557 47.7586 155.954 48 155.264 48C154.574 48 153.988 47.7586 153.505 47.2758C153.022 46.7585 152.781 46.155 152.781 45.4653V26.0157C152.781 25.326 153.022 24.7397 153.505 24.2569C153.988 23.7396 154.574 23.481 155.264 23.481C155.954 23.481 156.557 23.7396 157.074 24.2569C157.592 24.7397 157.85 25.326 157.85 26.0157V45.4653C157.85 46.155 157.592 46.7585 157.074 47.2758ZM164.018 48C162.949 48 162.191 47.5344 161.742 46.6033C161.26 45.6033 161.363 44.7067 162.053 43.9135L174.002 28.6538H164.432C163.708 28.6538 163.087 28.4124 162.57 27.9296C162.087 27.4123 161.846 26.8088 161.846 26.1191C161.846 25.3949 162.087 24.7914 162.57 24.3086C163.087 23.8259 163.708 23.5845 164.432 23.5845H179.175C180.244 23.5845 181.002 24.05 181.451 24.9811C181.899 25.9467 181.813 26.8433 181.192 27.671L169.243 42.9307H179.899C180.589 42.9307 181.175 43.1893 181.658 43.7066C182.14 44.1894 182.382 44.7756 182.382 45.4653C182.382 46.155 182.14 46.7585 181.658 47.2758C181.175 47.7586 180.589 48 179.899 48H164.018ZM207.969 37.3958C207.9 37.4303 207.78 37.4475 207.607 37.4475L191.21 37.4992C191.554 39.0856 192.33 40.3788 193.537 41.3788C194.744 42.3789 196.227 42.9824 197.986 43.1893C200.917 43.5342 203.452 42.8962 205.59 41.2754C207.211 40.7236 208.262 41.0167 208.745 42.1548C209.263 43.4307 208.797 44.4825 207.349 45.3102C204.969 47.4482 201.607 48.3276 197.262 47.9483C193.951 47.6034 191.244 46.2757 189.14 43.9652C187.071 41.6202 186.037 38.8614 186.037 35.6888C186.037 32.3092 187.226 29.4297 189.606 27.0502C191.985 24.6363 194.865 23.4293 198.245 23.4293C201.555 23.4293 204.348 24.55 206.624 26.7916C208.9 29.0331 210.038 31.7747 210.038 35.0163C210.038 35.6026 209.832 36.1198 209.418 36.5681C209.038 37.0165 208.556 37.2923 207.969 37.3958ZM198.245 28.0848C196.486 28.0848 194.951 28.6193 193.641 29.6883C192.33 30.7229 191.503 32.1368 191.158 33.93L204.969 33.8783C204.728 32.154 203.986 30.7574 202.745 29.6883C201.538 28.6193 200.038 28.0848 198.245 28.0848Z" fill="white"/>
<path d="M243.6 37.3958C243.531 37.4303 243.41 37.4475 243.238 37.4475L226.84 37.4992C227.185 39.0856 227.961 40.3788 229.168 41.3788C230.375 42.3789 231.857 42.9824 233.616 43.1893C236.547 43.5342 239.082 42.8962 241.22 41.2754C242.841 40.7236 243.893 41.0167 244.376 42.1548C244.893 43.4307 244.427 44.4825 242.979 45.3102C240.599 47.4482 237.237 48.3276 232.892 47.9483C229.581 47.6034 226.874 46.2757 224.771 43.9652C222.702 41.6202 221.667 38.8614 221.667 35.6888C221.667 32.3092 222.857 29.4297 225.236 27.0502C227.616 24.6363 230.495 23.4293 233.875 23.4293C237.185 23.4293 239.979 24.55 242.255 26.7916C244.531 29.0331 245.669 31.7747 245.669 35.0163C245.669 35.6026 245.462 36.1198 245.048 36.5681C244.669 37.0165 244.186 37.2923 243.6 37.3958ZM233.875 28.0848C232.116 28.0848 230.581 28.6193 229.271 29.6883C227.961 30.7229 227.133 32.1368 226.788 33.93L240.599 33.8783C240.358 32.154 239.617 30.7574 238.375 29.6883C237.168 28.6193 235.668 28.0848 233.875 28.0848ZM273.061 35.844V36.0509V36.2061V45.6205C273.061 46.3102 272.837 46.8965 272.389 47.3793C271.941 47.8621 271.406 48.1035 270.785 48.1035C270.13 48.1035 269.578 47.8621 269.13 47.3793C268.682 46.8965 268.458 46.3102 268.458 45.6205V44.6894C266.147 46.9999 263.595 48.1552 260.802 48.1552C257.388 48.1552 254.474 46.9654 252.06 44.586C249.68 42.172 248.491 39.258 248.491 35.844C248.491 32.4644 249.68 29.5849 252.06 27.2054C254.474 24.7914 257.388 23.5845 260.802 23.5845C264.182 23.5845 267.061 24.7914 269.441 27.2054C271.854 29.6194 273.061 32.4989 273.061 35.844ZM255.629 41.0167C257.078 42.4306 258.802 43.1376 260.802 43.1376C262.802 43.1376 264.509 42.4306 265.923 41.0167C267.337 39.5684 268.044 37.8441 268.044 35.844C268.044 33.8438 267.337 32.1368 265.923 30.7229C264.509 29.309 262.802 28.6021 260.802 28.6021C258.802 28.6021 257.078 29.309 255.629 30.7229C254.215 32.1368 253.508 33.8438 253.508 35.844C253.508 37.8441 254.215 39.5684 255.629 41.0167ZM285.589 48.1552C282.899 48.1897 279.968 47.3965 276.795 45.7757C276.174 45.5343 275.726 45.1032 275.45 44.4825C275.209 43.8273 275.209 43.1893 275.45 42.5686C275.692 41.9134 276.123 41.465 276.743 41.2237C277.399 40.9478 278.037 40.9478 278.657 41.2237C279.588 41.7754 280.571 42.2237 281.606 42.5686C282.64 42.8789 283.589 43.0686 284.451 43.1376C285.347 43.1721 286.175 43.1203 286.934 42.9824C287.692 42.81 288.279 42.5513 288.693 42.2065C289.141 41.8271 289.365 41.3788 289.365 40.8616C289.365 40.2408 288.968 39.6718 288.175 39.1545C287.382 38.6028 286.313 38.189 284.968 37.9131C281.554 37.0509 279.192 35.8957 277.881 34.4473C276.605 32.9989 276.036 31.4643 276.174 29.8435C276.312 27.9813 277.278 26.4467 279.071 25.2397C280.864 23.9983 283.003 23.412 285.485 23.481C287.934 23.481 290.262 24.119 292.469 25.3949C293.089 25.6708 293.52 26.1364 293.762 26.7916C294.003 27.4468 293.986 28.0675 293.71 28.6538C293.434 29.2745 292.969 29.7228 292.314 29.9987C291.693 30.2401 291.072 30.2056 290.451 29.8953C289.141 29.0676 287.779 28.5848 286.365 28.4469C284.951 28.3089 283.813 28.4296 282.951 28.809C282.123 29.1883 281.675 29.6883 281.606 30.3091C281.571 30.585 281.64 30.8953 281.813 31.2402C282.02 31.5505 282.468 31.9299 283.158 32.3782C283.882 32.792 284.813 33.1196 285.951 33.361C291.882 34.8784 294.848 37.3785 294.848 40.8616C294.848 42.7927 294.055 44.4825 292.469 45.9309C290.882 47.3448 288.589 48.0862 285.589 48.1552ZM318.564 23.7914C319.185 24.0673 319.616 24.5328 319.857 25.188C320.099 25.8432 320.082 26.5157 319.806 27.2054L307.132 55.7592C306.65 56.7592 305.874 57.2593 304.805 57.2593C304.391 57.2593 304.029 57.1903 303.718 57.0524C303.063 56.7765 302.615 56.2937 302.373 55.604C302.166 54.9488 302.201 54.3108 302.477 53.6901L305.943 45.8792L297.304 27.2054C296.994 26.5502 296.942 25.895 297.149 25.2397C297.39 24.55 297.839 24.0673 298.494 23.7914C299.115 23.481 299.752 23.4465 300.408 23.6879C301.097 23.9293 301.58 24.3604 301.856 24.9811L308.684 39.6718L315.15 25.0846C315.426 24.3949 315.892 23.9293 316.547 23.6879C317.202 23.4465 317.874 23.481 318.564 23.7914Z" fill="white"/>
<rect y="3.26758" width="61.7089" height="61.7089" rx="8.28925" fill="#FA3434"/>
<path d="M27.9023 15.5098C32.2476 14.6573 36.7545 15.3564 40.6377 17.4844C43.3324 18.9611 45.6126 21.2362 47.2979 23.875C48.4185 25.6298 47.3765 27.8664 45.3398 28.5146C43.5073 29.0979 41.589 28.1038 40.4531 26.4795C39.6419 25.3193 38.6258 24.3363 37.2852 23.6016C34.8336 22.2581 31.9883 21.8172 29.2451 22.3555C26.502 22.8937 24.0346 24.3768 22.2725 26.5469C20.5103 28.7171 19.5651 31.4371 19.6016 34.2324C19.6381 37.0275 20.6537 39.7214 22.4717 41.8447C24.2898 43.9682 26.7954 45.387 29.5518 45.8535C32.3081 46.32 35.141 45.8044 37.5566 44.3975C38.9292 43.598 39.9106 42.5826 40.6758 41.377C41.679 39.7962 43.4279 38.7765 45.1934 39.2061C47.2791 39.7137 48.4414 41.9218 47.3984 43.7402C45.8322 46.4709 43.7026 48.8909 41.0674 50.4258C37.2409 52.6544 32.7538 53.4704 28.3877 52.7314C24.0216 51.9925 20.0529 49.7455 17.1729 46.3818C14.2929 43.0183 12.6838 38.7509 12.626 34.3232C12.5682 29.8955 14.0661 25.587 16.8574 22.1494C19.6487 18.712 23.5572 16.3623 27.9023 15.5098Z" fill="white" stroke="white" stroke-width="0.382227"/>
<circle cx="30.8545" cy="34.124" r="6.10918" fill="white" stroke="white" stroke-width="0.123418"/>
<path d="M19.5254 39.1181V28.7565L21.5977 27.8125C21.5977 27.8125 20.8504 28.7835 21.0796 29.4473C21.5152 30.7087 22.3932 31.327 23.7276 31.3469C24.9138 31.3646 26.4331 29.9654 26.4331 29.9654V38.3122C26.4331 38.3122 24.9235 36.7043 23.67 36.7004C22.2717 36.6961 21.3866 37.4397 20.9645 38.7727C20.7473 39.4585 21.7359 40.6608 21.7359 40.6608L19.5254 39.1181Z" fill="white" stroke="white" stroke-width="0.115129" stroke-linecap="round"/>
</svg>
