<svg width="47" height="47" viewBox="0 0 47 47" fill="none" xmlns="http://www.w3.org/2000/svg">
<path d="M17.5186 20.9239C14.5601 20.9239 12.166 18.5299 12.166 15.5713C12.166 12.6128 14.5601 10.2188 17.5186 10.2188C20.4771 10.2188 22.8712 12.6128 22.8712 15.5713C22.8712 18.5299 20.4771 20.9239 17.5186 20.9239ZM17.5186 13.1383C16.1756 13.1383 15.0856 14.2283 15.0856 15.5713C15.0856 16.9143 16.1756 18.0043 17.5186 18.0043C18.8616 18.0043 19.9516 16.9143 19.9516 15.5713C19.9516 14.2283 18.8616 13.1383 17.5186 13.1383Z" fill="black" fill-opacity="0.4"/>
<path d="M29.1965 44.2791H17.5182C6.94923 44.2791 2.43359 39.7635 2.43359 29.1946V17.5162C2.43359 6.94728 6.94923 2.43164 17.5182 2.43164H25.3037C26.1018 2.43164 26.7635 3.09341 26.7635 3.89144C26.7635 4.68946 26.1018 5.35123 25.3037 5.35123H17.5182C8.54527 5.35123 5.35319 8.54332 5.35319 17.5162V29.1946C5.35319 38.1674 8.54527 41.3595 17.5182 41.3595H29.1965C38.1694 41.3595 41.3615 38.1674 41.3615 29.1946V19.4626C41.3615 18.6646 42.0233 18.0028 42.8213 18.0028C43.6193 18.0028 44.2811 18.6646 44.2811 19.4626V29.1946C44.2811 39.7635 39.7654 44.2791 29.1965 44.2791Z" fill="black" fill-opacity="0.4"/>
<path d="M41.3603 11.1911H30.6551C29.8571 11.1911 29.1953 10.5293 29.1953 9.73128C29.1953 8.93326 29.8571 8.27148 30.6551 8.27148H41.3603C42.1583 8.27148 42.8201 8.93326 42.8201 9.73128C42.8201 10.5293 42.1583 11.1911 41.3603 11.1911Z" fill="black" fill-opacity="0.4"/>
<path d="M36.0086 16.5447C35.2106 16.5447 34.5488 15.8829 34.5488 15.0849V4.37972C34.5488 3.5817 35.2106 2.91992 36.0086 2.91992C36.8066 2.91992 37.4684 3.5817 37.4684 4.37972V15.0849C37.4684 15.8829 36.8066 16.5447 36.0086 16.5447Z" fill="black" fill-opacity="0.4"/>
<path d="M5.197 38.3445C4.72987 38.3445 4.26273 38.1109 3.99024 37.7022C3.54257 37.0404 3.71774 36.1256 4.37952 35.6779L13.9752 29.2354C16.0773 27.8339 18.9775 27.9897 20.8849 29.6052L21.5273 30.1696C22.5005 31.0066 24.1549 31.0066 25.1086 30.1696L33.2056 23.221C35.2883 21.4498 38.5193 21.4498 40.6019 23.221L43.7745 25.9459C44.3779 26.4715 44.4558 27.3863 43.9303 28.0091C43.4047 28.6125 42.4899 28.6904 41.8671 28.1648L38.6945 25.4399C37.7213 24.6029 36.0668 24.6029 35.1131 25.4399L27.0161 32.3885C24.9529 34.1597 21.7024 34.1597 19.6198 32.3885L18.9775 31.8241C18.0821 31.065 16.6029 30.9871 15.6102 31.6683L6.03395 38.1109C5.76146 38.2666 5.4695 38.3445 5.197 38.3445Z" fill="black" fill-opacity="0.4"/>
</svg>
