<svg width="105" height="105" viewBox="0 0 105 105" fill="none" xmlns="http://www.w3.org/2000/svg">
<path d="M0.09375 52.375C0.09375 23.5526 23.4589 0.1875 52.2812 0.1875C81.1036 0.1875 104.469 23.5526 104.469 52.375C104.469 81.1974 81.1036 104.562 52.2812 104.562C23.4589 104.562 0.09375 81.1974 0.09375 52.375Z" fill="#FEE2E2"/>
<path d="M43.583 30.6292V39.3271" stroke="#FF3A3A" stroke-width="3.26172" stroke-linecap="round" stroke-linejoin="round"/>
<path d="M60.9795 30.6292V39.3271" stroke="#FF3A3A" stroke-width="3.26172" stroke-linecap="round" stroke-linejoin="round"/>
<path d="M67.5026 34.9802H37.0599C34.658 34.9802 32.7109 36.9273 32.7109 39.3292V69.7719C32.7109 72.1738 34.658 74.1208 37.0599 74.1208H67.5026C69.9045 74.1208 71.8516 72.1738 71.8516 69.7719V39.3292C71.8516 36.9273 69.9045 34.9802 67.5026 34.9802Z" stroke="#FF3A3A" stroke-width="3.26172" stroke-linecap="round" stroke-linejoin="round"/>
<path d="M32.7109 48.0271H71.8516" stroke="#FF3A3A" stroke-width="3.26172" stroke-linecap="round" stroke-linejoin="round"/>
</svg>
