<svg width="25" height="25" viewBox="0 0 25 25" fill="none" xmlns="http://www.w3.org/2000/svg">
<path d="M22.8096 8.51388V17.2023C22.8096 20.5305 20.1139 23.2262 16.7858 23.2262H8.09733C4.76918 23.2262 2.07349 20.5305 2.07349 17.2023V8.51388C2.07349 5.93223 3.13103 4.05561 5.00765 3.14322C5.69194 2.81145 6.47991 3.32985 6.47991 4.08672V13.2936C6.47991 14.5274 6.95684 15.5123 7.81739 16.01C8.68831 16.4973 9.78732 16.3936 10.9071 15.7197L12.2549 14.911C12.3379 14.8695 12.5452 14.8695 12.6074 14.9006L13.976 15.7197C14.7225 16.1655 15.3653 16.3107 15.8837 16.3107C16.4229 16.3107 16.8376 16.1448 17.0864 15.9996C17.9263 15.5123 18.4032 14.5274 18.4032 13.2936V4.08672C18.4032 3.32985 19.2015 2.81145 19.8754 3.14322C21.7521 4.05561 22.8096 5.93223 22.8096 8.51388Z" fill="white"/>
<path d="M15.8112 2.49219C16.3814 2.49219 16.848 2.95875 16.848 3.52899V13.2957C16.848 13.9593 16.651 14.4569 16.3089 14.6539C15.9564 14.8613 15.3965 14.7576 14.7744 14.3844L13.4058 13.5653C12.877 13.2439 12.0061 13.2439 11.4774 13.5653L10.1088 14.3844C9.48668 14.7576 8.92681 14.8509 8.5743 14.6539C8.23215 14.4569 8.03516 13.9593 8.03516 13.2957V3.52899C8.03516 2.95875 8.50172 2.49219 9.07196 2.49219H15.8112Z" fill="white"/>
</svg>
