<svg width="36" height="36" viewBox="0 0 36 36" fill="none" xmlns="http://www.w3.org/2000/svg">
<path d="M10.8219 5.3133V2.98474C10.8219 2.37274 11.3294 1.86523 11.9414 1.86523C12.5534 1.86523 13.0609 2.37274 13.0609 2.98474V5.22374H22.7632V2.98474C22.7632 2.37274 23.2707 1.86523 23.8827 1.86523C24.4947 1.86523 25.0022 2.37274 25.0022 2.98474V5.3133C29.0324 5.68647 30.9878 8.08966 31.2863 11.6571C31.3162 12.09 30.958 12.4483 30.54 12.4483H5.28406C4.85118 12.4483 4.49294 12.0751 4.53772 11.6571C4.83626 8.08966 6.79165 5.68647 10.8219 5.3133Z" fill="#858282"/>
<path d="M5.97131 14.6875H29.854C30.675 14.6875 31.3467 15.3592 31.3467 16.1802V25.375C31.3467 29.853 29.1077 32.8384 23.8833 32.8384H11.942C6.71765 32.8384 4.47865 29.853 4.47865 25.375V16.1802C4.47865 15.3592 5.15034 14.6875 5.97131 14.6875ZM22.0772 27.1811C22.1518 27.2408 22.2265 27.3155 22.3011 27.3603C22.3907 27.42 22.4802 27.4647 22.5698 27.4946C22.6593 27.5394 22.7489 27.5692 22.8385 27.5842C22.943 27.5991 23.0325 27.614 23.137 27.614C23.331 27.614 23.5251 27.5692 23.7042 27.4946C23.8983 27.42 24.0475 27.3155 24.1968 27.1811C24.4655 26.8975 24.6297 26.5094 24.6297 26.1213C24.6297 25.7332 24.4655 25.3452 24.1968 25.0615C24.0475 24.9272 23.8983 24.8227 23.7042 24.7481C23.4355 24.6287 23.137 24.5988 22.8385 24.6585C22.7489 24.6735 22.6593 24.7033 22.5698 24.7481C22.4802 24.7779 22.3907 24.8227 22.3011 24.8824C22.2265 24.9421 22.1518 25.0018 22.0772 25.0615C21.8085 25.3452 21.6443 25.7332 21.6443 26.1213C21.6443 26.5094 21.8085 26.8975 22.0772 27.1811ZM22.0772 21.9568C22.3608 22.2255 22.7489 22.3897 23.137 22.3897C23.5251 22.3897 23.9132 22.2255 24.1968 21.9568C24.4655 21.6732 24.6297 21.2851 24.6297 20.897C24.6297 20.5089 24.4655 20.1208 24.1968 19.8372C23.7788 19.4193 23.1221 19.2849 22.5698 19.5237C22.3757 19.5984 22.2115 19.7029 22.0772 19.8372C21.8085 20.1208 21.6443 20.5089 21.6443 20.897C21.6443 21.2851 21.8085 21.6732 22.0772 21.9568ZM16.8529 27.1811C17.1365 27.4498 17.5246 27.614 17.9127 27.614C18.3008 27.614 18.6888 27.4498 18.9725 27.1811C19.2411 26.8975 19.4053 26.5094 19.4053 26.1213C19.4053 25.7332 19.2411 25.3452 18.9725 25.0615C18.4202 24.5093 17.4052 24.5093 16.8529 25.0615C16.5842 25.3452 16.42 25.7332 16.42 26.1213C16.42 26.5094 16.5842 26.8975 16.8529 27.1811ZM16.8529 21.9568C16.9275 22.0165 17.0021 22.0762 17.0768 22.1359C17.1663 22.1956 17.2559 22.2404 17.3454 22.2703C17.435 22.315 17.5246 22.3449 17.6141 22.3598C17.7186 22.3747 17.8082 22.3897 17.9127 22.3897C18.3008 22.3897 18.6888 22.2255 18.9725 21.9568C19.2411 21.6732 19.4053 21.2851 19.4053 20.897C19.4053 20.5089 19.2411 20.1208 18.9725 19.8372C18.8381 19.7029 18.6739 19.5984 18.4799 19.5237C17.9276 19.2849 17.2708 19.4193 16.8529 19.8372C16.5842 20.1208 16.42 20.5089 16.42 20.897C16.42 21.2851 16.5842 21.6732 16.8529 21.9568ZM11.6285 27.1811C11.9121 27.4498 12.3002 27.614 12.6883 27.614C13.0764 27.614 13.4645 27.4498 13.7481 27.1811C14.0168 26.8975 14.181 26.5094 14.181 26.1213C14.181 25.7332 14.0168 25.3452 13.7481 25.0615C13.1958 24.5093 12.1808 24.5093 11.6285 25.0615C11.3598 25.3452 11.1957 25.7332 11.1957 26.1213C11.1957 26.5094 11.3598 26.8975 11.6285 27.1811ZM11.6285 21.9568C11.7032 22.0165 11.7778 22.0762 11.8524 22.1359C11.942 22.1956 12.0315 22.2404 12.1211 22.2703C12.2107 22.315 12.3002 22.3449 12.3898 22.3598C12.4943 22.3747 12.5988 22.3897 12.6883 22.3897C13.0764 22.3897 13.4645 22.2255 13.7481 21.9568C14.0168 21.6732 14.181 21.2851 14.181 20.897C14.181 20.5089 14.0168 20.1208 13.7481 19.8372C13.5989 19.7029 13.4496 19.5984 13.2555 19.5237C12.9869 19.4043 12.6883 19.3745 12.3898 19.4342C12.3002 19.4491 12.2107 19.479 12.1211 19.5237C12.0315 19.5536 11.942 19.5984 11.8524 19.6581C11.7778 19.7178 11.7032 19.7775 11.6285 19.8372C11.3598 20.1208 11.1957 20.5089 11.1957 20.897C11.1957 21.2851 11.3598 21.6732 11.6285 21.9568Z" fill="#858282"/>
</svg>
