<svg width="20" height="20" viewBox="0 0 20 20" fill="none" xmlns="http://www.w3.org/2000/svg">
<path d="M13.4898 2.86822V1.61184C13.4898 1.28164 13.216 1.00781 12.8858 1.00781C12.5556 1.00781 12.2818 1.28164 12.2818 1.61184V2.81989H7.04686V1.61184C7.04686 1.28164 6.77304 1.00781 6.44284 1.00781C6.11263 1.00781 5.83881 1.28164 5.83881 1.61184V2.86822C3.66431 3.06956 2.60928 4.3662 2.44821 6.29103C2.4321 6.52459 2.62539 6.71788 2.85089 6.71788H16.4777C16.7113 6.71788 16.9046 6.51654 16.8804 6.29103C16.7193 4.3662 15.6643 3.06956 13.4898 2.86822Z" fill="#FF6666"/>
<path d="M15.3016 12.082C13.5217 12.082 12.0801 13.5236 12.0801 15.3035C12.0801 15.9075 12.2492 16.4793 12.5472 16.9626C13.1029 17.8968 14.1257 18.525 15.3016 18.525C16.4774 18.525 17.5002 17.8968 18.0559 16.9626C18.3539 16.4793 18.523 15.9075 18.523 15.3035C18.523 13.5236 17.0814 12.082 15.3016 12.082ZM16.9687 14.9572L15.2532 16.5438C15.1405 16.6485 14.9875 16.7048 14.8425 16.7048C14.6895 16.7048 14.5365 16.6485 14.4156 16.5277L13.6183 15.7304C13.3848 15.4968 13.3848 15.1102 13.6183 14.8767C13.8519 14.6431 14.2385 14.6431 14.472 14.8767L14.8586 15.2632L16.1472 14.0713C16.3888 13.8458 16.7754 13.8619 17.0009 14.1035C17.2264 14.3451 17.2103 14.7236 16.9687 14.9572Z" fill="#FF6666"/>
<path d="M16.1073 7.92578H3.22138C2.77843 7.92578 2.41602 8.2882 2.41602 8.73115V13.6922C2.41602 16.1083 3.62407 17.7191 6.44286 17.7191H10.4133C10.969 17.7191 11.3556 17.1795 11.1784 16.656C11.0174 16.1889 10.8804 15.6734 10.8804 15.303C10.8804 12.8627 12.8697 10.8734 15.31 10.8734C15.5435 10.8734 15.7771 10.8895 16.0026 10.9298C16.4858 11.0023 16.9207 10.6238 16.9207 10.1405V8.7392C16.9127 8.2882 16.5502 7.92578 16.1073 7.92578ZM7.41736 14.6667C7.26434 14.8117 7.05494 14.9003 6.84555 14.9003C6.63615 14.9003 6.42675 14.8117 6.27373 14.6667C6.12877 14.5137 6.04018 14.3043 6.04018 14.0949C6.04018 13.8855 6.12877 13.6761 6.27373 13.5231C6.35427 13.4506 6.43481 13.3942 6.53951 13.354C6.83749 13.2251 7.19185 13.2976 7.41736 13.5231C7.56232 13.6761 7.65092 13.8855 7.65092 14.0949C7.65092 14.3043 7.56232 14.5137 7.41736 14.6667ZM7.41736 11.8479C7.37709 11.8801 7.33682 11.9124 7.29655 11.9446C7.24823 11.9768 7.19991 12.0009 7.15159 12.0171C7.10326 12.0412 7.05494 12.0573 7.00662 12.0654C6.95024 12.0734 6.89387 12.0815 6.84555 12.0815C6.63615 12.0815 6.42675 11.9929 6.27373 11.8479C6.12877 11.6949 6.04018 11.4855 6.04018 11.2761C6.04018 11.0667 6.12877 10.8573 6.27373 10.7043C6.45897 10.5191 6.74085 10.4305 7.00662 10.4869C7.05494 10.4949 7.10326 10.511 7.15159 10.5352C7.19991 10.5513 7.24823 10.5754 7.29655 10.6077C7.33682 10.6399 7.37709 10.6721 7.41736 10.7043C7.56232 10.8573 7.65092 11.0667 7.65092 11.2761C7.65092 11.4855 7.56232 11.6949 7.41736 11.8479ZM10.2361 11.8479C10.0831 11.9929 9.87373 12.0815 9.66434 12.0815C9.45494 12.0815 9.24555 11.9929 9.09253 11.8479C8.94756 11.6949 8.85897 11.4855 8.85897 11.2761C8.85897 11.0667 8.94756 10.8573 9.09253 10.7043C9.39857 10.4063 9.93816 10.4063 10.2361 10.7043C10.3811 10.8573 10.4697 11.0667 10.4697 11.2761C10.4697 11.4855 10.3811 11.6949 10.2361 11.8479Z" fill="#FF6666"/>
</svg>
