<svg width="37" height="37" viewBox="0 0 37 37" fill="none" xmlns="http://www.w3.org/2000/svg">
<path d="M33.5312 12.3317C33.5312 12.9638 33.0071 13.488 32.375 13.488H4.625C3.99292 13.488 3.46875 12.9638 3.46875 12.3317C3.46875 11.6997 3.99292 11.1755 4.625 11.1755H6.1975L6.78333 8.38508C7.33833 5.68716 8.49458 3.20508 13.0887 3.20508H23.9112C28.5054 3.20508 29.6617 5.68716 30.2167 8.38508L30.8025 11.1755H32.375C33.0071 11.1755 33.5312 11.6997 33.5312 12.3317Z" fill="#FF3535"/>
<path d="M34.1943 21.0598C33.963 18.5161 33.2847 15.8027 28.3359 15.8027H8.66428C3.71553 15.8027 3.05261 18.5161 2.80595 21.0598L1.94261 30.4486C1.8347 31.6202 2.22011 32.7919 3.02178 33.6706C3.83886 34.5648 4.99511 35.0736 6.22844 35.0736H9.12678C11.6243 35.0736 12.1022 33.6398 12.4105 32.6994L12.7189 31.7744C13.0734 30.7107 13.1659 30.4486 14.5534 30.4486H22.4468C23.8343 30.4486 23.8805 30.6027 24.2814 31.7744L24.5897 32.6994C24.898 33.6398 25.3759 35.0736 27.8734 35.0736H30.7718C31.9897 35.0736 33.1614 34.5648 33.9784 33.6706C34.7801 32.7919 35.1655 31.6202 35.0576 30.4486L34.1943 21.0598ZM13.8751 24.2819H9.25011C8.61803 24.2819 8.09386 23.7577 8.09386 23.1257C8.09386 22.4936 8.61803 21.9694 9.25011 21.9694H13.8751C14.5072 21.9694 15.0314 22.4936 15.0314 23.1257C15.0314 23.7577 14.5072 24.2819 13.8751 24.2819ZM27.7501 24.2819H23.1251C22.493 24.2819 21.9689 23.7577 21.9689 23.1257C21.9689 22.4936 22.493 21.9694 23.1251 21.9694H27.7501C28.3822 21.9694 28.9064 22.4936 28.9064 23.1257C28.9064 23.7577 28.3822 24.2819 27.7501 24.2819Z" fill="#FF3535"/>
</svg>
