<svg width="20" height="20" viewBox="0 0 20 20" fill="none" xmlns="http://www.w3.org/2000/svg">
<path d="M9.66502 1.61328C5.22744 1.61328 1.61133 5.22939 1.61133 9.66697C1.61133 14.1046 5.22744 17.7207 9.66502 17.7207C14.1026 17.7207 17.7187 14.1046 17.7187 9.66697C17.7187 5.22939 14.1026 1.61328 9.66502 1.61328ZM13.1684 12.5421C13.0556 12.7354 12.8543 12.8401 12.6449 12.8401C12.5402 12.8401 12.4355 12.816 12.3388 12.7515L9.8422 11.2616C9.22207 10.8911 8.76301 10.0777 8.76301 9.36093V6.05892C8.76301 5.72872 9.03683 5.45489 9.36703 5.45489C9.69724 5.45489 9.97106 5.72872 9.97106 6.05892V9.36093C9.97106 9.65087 10.2127 10.0777 10.4623 10.2227L12.959 11.7126C13.2489 11.8817 13.3456 12.2522 13.1684 12.5421Z" fill="#FF6666"/>
</svg>
