<svg width="20" height="20" viewBox="0 0 20 20" fill="none" xmlns="http://www.w3.org/2000/svg">
<path d="M13.6909 17.7198H5.63723C5.30703 17.7198 5.0332 17.4459 5.0332 17.1157C5.0332 16.7855 5.30703 16.5117 5.63723 16.5117H13.6909C14.0211 16.5117 14.2949 16.7855 14.2949 17.1157C14.2949 17.4459 14.0211 17.7198 13.6909 17.7198Z" fill="#FF6666"/>
<path d="M16.3897 4.44465L13.1682 6.748C12.7413 7.05404 12.1293 6.86881 11.944 6.37753L10.4219 2.31847C10.1642 1.6178 9.17355 1.6178 8.91584 2.31847L7.38563 6.36948C7.2004 6.86881 6.59637 7.05404 6.16953 6.73995L2.94805 4.43659C2.30376 3.98559 1.45006 4.62183 1.71584 5.37082L5.06617 14.7534C5.17892 15.0755 5.48496 15.2849 5.82322 15.2849H13.4984C13.8366 15.2849 14.1427 15.0675 14.2554 14.7534L17.6058 5.37082C17.8796 4.62183 17.0259 3.98559 16.3897 4.44465ZM11.6783 11.8782H7.65141C7.32121 11.8782 7.04738 11.6044 7.04738 11.2742C7.04738 10.944 7.32121 10.6701 7.65141 10.6701H11.6783C12.0085 10.6701 12.2823 10.944 12.2823 11.2742C12.2823 11.6044 12.0085 11.8782 11.6783 11.8782Z" fill="#FF6666"/>
</svg>
