<svg width="106" height="106" viewBox="0 0 106 106" fill="none" xmlns="http://www.w3.org/2000/svg">
<path d="M0.84375 52.9688C0.84375 24.1464 24.2089 0.78125 53.0312 0.78125C81.8536 0.78125 105.219 24.1464 105.219 52.9688C105.219 81.7911 81.8536 105.156 53.0312 105.156C24.2089 105.156 0.84375 81.7911 0.84375 52.9688Z" fill="#FEE2E2"/>
<path d="M68.2523 63.8422H72.6012C73.9059 63.8422 74.7757 62.9724 74.7757 61.6677V55.1443C74.7757 53.1873 73.2536 51.4477 71.514 51.0128C67.5999 49.9255 61.7288 48.6208 61.7288 48.6208C61.7288 48.6208 58.902 45.5766 56.945 43.6195C55.8577 42.7498 54.5531 42.0974 53.0309 42.0974H37.8096C36.5049 42.0974 35.4176 42.9672 34.7653 44.0544L31.721 50.3604C31.4331 51.2003 31.2861 52.082 31.2861 52.9698V61.6677C31.2861 62.9724 32.1559 63.8422 33.4606 63.8422H37.8096" stroke="#FF3A3A" stroke-width="3.26172" stroke-linecap="round" stroke-linejoin="round"/>
<path d="M42.1585 68.1901C44.5604 68.1901 46.5075 66.243 46.5075 63.8411C46.5075 61.4393 44.5604 59.4922 42.1585 59.4922C39.7567 59.4922 37.8096 61.4393 37.8096 63.8411C37.8096 66.243 39.7567 68.1901 42.1585 68.1901Z" stroke="#FF3A3A" stroke-width="3.26172" stroke-linecap="round" stroke-linejoin="round"/>
<path d="M46.5078 63.8401H59.5547" stroke="#FF3A3A" stroke-width="3.26172" stroke-linecap="round" stroke-linejoin="round"/>
<path d="M63.9036 68.1901C66.3055 68.1901 68.2526 66.243 68.2526 63.8411C68.2526 61.4393 66.3055 59.4922 63.9036 59.4922C61.5018 59.4922 59.5547 61.4393 59.5547 63.8411C59.5547 66.243 61.5018 68.1901 63.9036 68.1901Z" stroke="#FF3A3A" stroke-width="3.26172" stroke-linecap="round" stroke-linejoin="round"/>
</svg>
