<svg width="105" height="106" viewBox="0 0 105 106" fill="none" xmlns="http://www.w3.org/2000/svg">
<path d="M0.09375 52.9688C0.09375 24.1464 23.4589 0.78125 52.2812 0.78125C81.1036 0.78125 104.469 24.1464 104.469 52.9688C104.469 81.7911 81.1036 105.156 52.2812 105.156C23.4589 105.156 0.09375 81.7911 0.09375 52.9688Z" fill="#FEE2E2"/>
<path d="M67.5023 57.3177C70.7423 54.143 74.0257 50.3376 74.0257 45.3581C74.0257 42.1862 72.7657 39.1442 70.5228 36.9013C68.28 34.6585 65.238 33.3984 62.0661 33.3984C58.239 33.3984 55.5426 34.4857 52.2809 37.7474C49.0192 34.4857 46.3229 33.3984 42.4958 33.3984C39.3239 33.3984 36.2819 34.6585 34.039 36.9013C31.7962 39.1442 30.5361 42.1862 30.5361 45.3581C30.5361 50.3594 33.7979 54.1647 37.0596 57.3177L52.2809 72.5391L67.5023 57.3177Z" stroke="#FF3A3A" stroke-width="3.26172" stroke-linecap="round" stroke-linejoin="round"/>
</svg>
