<svg width="20" height="20" viewBox="0 0 20 20" fill="none" xmlns="http://www.w3.org/2000/svg">
<path d="M2.84375 17.8706V4.06185C2.84375 2.43728 3.93221 1.625 5.2806 1.625H11.7789C13.1272 1.625 14.2157 2.43728 14.2157 4.06185V17.8706H2.84375Z" stroke="white" stroke-width="1.49804" stroke-linecap="round" stroke-linejoin="round"/>
<path d="M1.625 17.8711H15.4338" stroke="white" stroke-width="1.49804" stroke-linecap="round" stroke-linejoin="round"/>
<path d="M6.81451 8.12226H10.2505C11.0952 8.12226 11.7857 7.71612 11.7857 6.58705V5.58795C11.7857 4.45887 11.0952 4.05273 10.2505 4.05273H6.81451C5.96974 4.05273 5.2793 4.45887 5.2793 5.58795V6.58705C5.2793 7.71612 5.96974 8.12226 6.81451 8.12226Z" stroke="white" stroke-width="1.49804" stroke-linecap="round" stroke-linejoin="round"/>
<path d="M5.2793 10.5605H7.71614" stroke="white" stroke-width="1.49804" stroke-linecap="round" stroke-linejoin="round"/>
<path d="M14.2148 13.0046L17.8701 12.9965V8.12283L16.2455 7.31055" stroke="white" stroke-width="1.49804" stroke-linecap="round" stroke-linejoin="round"/>
</svg>
