<svg width="24" height="24" viewBox="0 0 24 24" fill="none" xmlns="http://www.w3.org/2000/svg">
<path d="M3.47461 21.5454V5.02935C3.47461 3.08628 4.77647 2.11475 6.38921 2.11475H14.1615C15.7742 2.11475 17.0761 3.08628 17.0761 5.02935V21.5454H3.47461Z" stroke="#949494" stroke-width="1.4573" stroke-linecap="round" stroke-linejoin="round"/>
<path d="M2.01758 21.5454H18.5337" stroke="#949494" stroke-width="1.4573" stroke-linecap="round" stroke-linejoin="round"/>
<path d="M8.22585 9.8874H12.3354C13.3458 9.8874 14.1716 9.40164 14.1716 8.0512V6.85622C14.1716 5.50579 13.3458 5.02002 12.3354 5.02002H8.22585C7.21545 5.02002 6.38965 5.50579 6.38965 6.85622V8.0512C6.38965 9.40164 7.21545 9.8874 8.22585 9.8874Z" stroke="#949494" stroke-width="1.4573" stroke-linecap="round" stroke-linejoin="round"/>
<path d="M6.38965 12.8018H9.30425" stroke="#949494" stroke-width="1.4573" stroke-linecap="round" stroke-linejoin="round"/>
<path d="M17.0762 15.726L21.4481 15.7163V9.88706L19.505 8.91553" stroke="#949494" stroke-width="1.4573" stroke-linecap="round" stroke-linejoin="round"/>
</svg>
