<svg width="29" height="30" viewBox="0 0 29 30" fill="none" xmlns="http://www.w3.org/2000/svg">
<path d="M28.8675 15.3227C28.8675 14.3784 28.782 13.482 28.6355 12.6094H14.8352V18.0002H22.7368C22.3826 19.7693 21.3445 21.2634 19.8058 22.2794V25.8654H24.5198C27.2799 23.3672 28.8675 19.6856 28.8675 15.3227Z" fill="#4285F4"/>
<path d="M14.8354 29.3428C18.7923 29.3428 22.1019 28.0519 24.52 25.8644L19.8059 22.2785C18.4869 23.1391 16.8138 23.6651 14.8354 23.6651C11.0128 23.6651 7.77645 21.143 6.61625 17.7363H1.75562V21.4298C4.16151 26.1154 9.10763 29.3428 14.8354 29.3428Z" fill="#34A853"/>
<path d="M6.61575 17.7383C6.31043 16.8777 6.15167 15.9573 6.15167 15.0011C6.15167 14.0448 6.32265 13.1244 6.61575 12.2638V8.57031H1.75512C0.75368 10.5067 0.179688 12.6822 0.179688 15.0011C0.179688 17.32 0.75368 19.4954 1.75512 21.4318L6.61575 17.7383Z" fill="#FBBC05"/>
<path d="M14.8354 6.33397C16.997 6.33397 18.9266 7.06311 20.4532 8.48553L24.6299 4.39757C22.1019 2.07867 18.7923 0.65625 14.8354 0.65625C9.10763 0.65625 4.16151 3.88359 1.75562 8.5692L6.61625 12.2627C7.77645 8.85608 11.0128 6.33397 14.8354 6.33397Z" fill="#EA4335"/>
</svg>
