<svg width="25" height="25" viewBox="0 0 25 25" fill="none" xmlns="http://www.w3.org/2000/svg">
<path d="M22.54 6.02286L15.3472 0.984787C13.3866 -0.390369 10.3771 -0.31536 8.49151 1.14731L2.23526 6.03536C0.986513 7.01047 0 9.01069 0 10.5859V19.2118C0 22.3997 2.58492 25 5.76923 25H19.2308C22.4151 25 25 22.4122 25 19.2243V10.7484C25 9.0607 23.9136 6.98547 22.54 6.02286ZM13.4366 19.9994C13.4366 20.512 13.012 20.937 12.5 20.937C11.988 20.937 11.5634 20.512 11.5634 19.9994V16.249C11.5634 15.7365 11.988 15.3114 12.5 15.3114C13.012 15.3114 13.4366 15.7365 13.4366 16.249V19.9994Z" fill="white"/>
</svg>
