<svg width="25" height="26" viewBox="0 0 25 26" fill="none" xmlns="http://www.w3.org/2000/svg">
<path d="M21.7729 23.7935H3.11037C2.68528 23.7935 2.33276 23.441 2.33276 23.0159C2.33276 22.5908 2.68528 22.2383 3.11037 22.2383H21.7729C22.198 22.2383 22.5505 22.5908 22.5505 23.0159C22.5505 23.441 22.198 23.7935 21.7729 23.7935Z" fill="white"/>
<path d="M5.80605 8.89648H4.14716C3.57691 8.89648 3.11035 9.36305 3.11035 9.93329V18.8706C3.11035 19.4408 3.57691 19.9074 4.14716 19.9074H5.80605C6.37629 19.9074 6.84285 19.4408 6.84285 18.8706V9.93329C6.84285 9.35268 6.37629 8.89648 5.80605 8.89648Z" fill="white"/>
<path d="M13.2711 5.58789H11.6122C11.042 5.58789 10.5754 6.05445 10.5754 6.6247V18.8694C10.5754 19.4396 11.042 19.9062 11.6122 19.9062H13.2711C13.8414 19.9062 14.3079 19.4396 14.3079 18.8694V6.6247C14.3079 6.05445 13.8414 5.58789 13.2711 5.58789Z" fill="white"/>
<path d="M20.736 2.28125H19.0771C18.5068 2.28125 18.0403 2.74781 18.0403 3.31806V18.8701C18.0403 19.4404 18.5068 19.907 19.0771 19.907H20.736C21.3062 19.907 21.7728 19.4404 21.7728 18.8701V3.31806C21.7728 2.74781 21.3062 2.28125 20.736 2.28125Z" fill="white"/>
</svg>
