<svg width="30" height="30" viewBox="0 0 30 30" fill="none" xmlns="http://www.w3.org/2000/svg">
<path d="M14.9656 17.6736C12.3092 17.6736 10.1392 15.5161 10.1392 12.8472C10.1392 10.1783 12.3092 8.0332 14.9656 8.0332C17.622 8.0332 19.7921 10.1908 19.7921 12.8597C19.7921 15.5286 17.622 17.6736 14.9656 17.6736ZM14.9656 9.90392C13.3443 9.90392 12.0099 11.2259 12.0099 12.8597C12.0099 14.4934 13.3319 15.8154 14.9656 15.8154C16.5994 15.8154 17.9214 14.4934 17.9214 12.8597C17.9214 11.2259 16.5869 9.90392 14.9656 9.90392Z" fill="#FF3535"/>
<path d="M14.966 28.3867C13.1202 28.3867 11.262 27.6883 9.8153 26.3039C6.13622 22.762 2.07052 17.1125 3.60451 10.3903C4.98885 4.2918 10.3142 1.56055 14.966 1.56055C14.966 1.56055 14.966 1.56055 14.9785 1.56055C19.6303 1.56055 24.9557 4.2918 26.34 10.4028C27.8615 17.1249 23.7958 22.762 20.1167 26.3039C18.67 27.6883 16.8118 28.3867 14.966 28.3867ZM14.966 3.43127C11.3368 3.43127 6.67249 5.36434 5.43782 10.8019C4.0909 16.676 7.78245 21.7394 11.1248 24.9445C13.2824 27.0273 16.6621 27.0273 18.8197 24.9445C22.1496 21.7394 25.8411 16.676 24.5192 10.8019C23.272 5.36434 18.5952 3.43127 14.966 3.43127Z" fill="#FF3535"/>
</svg>
