<svg width="35" height="35" viewBox="0 0 35 35" fill="none" xmlns="http://www.w3.org/2000/svg">
<path d="M23.6103 2.91699H11.3894C6.08109 2.91699 2.9165 6.08158 2.9165 11.3899V23.5962C2.9165 28.9191 6.08109 32.0837 11.3894 32.0837H23.5957C28.904 32.0837 32.0686 28.9191 32.0686 23.6107V11.3899C32.0832 6.08158 28.9186 2.91699 23.6103 2.91699ZM24.7915 25.1566H10.2082C9.61025 25.1566 9.11442 24.6607 9.11442 24.0628C9.11442 23.4649 9.61025 22.9691 10.2082 22.9691H24.7915C25.3894 22.9691 25.8853 23.4649 25.8853 24.0628C25.8853 24.6607 25.3894 25.1566 24.7915 25.1566ZM24.7915 18.5941H10.2082C9.61025 18.5941 9.11442 18.0982 9.11442 17.5003C9.11442 16.9024 9.61025 16.4066 10.2082 16.4066H24.7915C25.3894 16.4066 25.8853 16.9024 25.8853 17.5003C25.8853 18.0982 25.3894 18.5941 24.7915 18.5941ZM24.7915 12.0316H10.2082C9.61025 12.0316 9.11442 11.5357 9.11442 10.9378C9.11442 10.3399 9.61025 9.84408 10.2082 9.84408H24.7915C25.3894 9.84408 25.8853 10.3399 25.8853 10.9378C25.8853 11.5357 25.3894 12.0316 24.7915 12.0316Z" fill="#FF3535"/>
</svg>
