<svg width="38" height="38" viewBox="0 0 38 38" fill="none" xmlns="http://www.w3.org/2000/svg">
<path d="M20.8845 9.5H10.7512C10.3395 9.5 9.94366 9.51583 9.56366 9.56333C5.30449 9.9275 3.16699 12.445 3.16699 17.0842V23.4175C3.16699 29.7508 5.70033 31.0017 10.7512 31.0017H11.3845C11.7328 31.0017 12.192 31.2392 12.3978 31.5083L14.2978 34.0417C15.137 35.1658 16.4987 35.1658 17.3378 34.0417L19.2378 31.5083C19.4753 31.1917 19.8553 31.0017 20.2512 31.0017H20.8845C25.5237 31.0017 28.0412 28.88 28.4053 24.605C28.4528 24.225 28.4687 23.8292 28.4687 23.4175V17.0842C28.4687 12.0333 25.9353 9.5 20.8845 9.5ZM10.292 22.1667C9.40533 22.1667 8.70866 21.4542 8.70866 20.5833C8.70866 19.7125 9.42116 19 10.292 19C11.1628 19 11.8753 19.7125 11.8753 20.5833C11.8753 21.4542 11.1628 22.1667 10.292 22.1667ZM15.8178 22.1667C14.9312 22.1667 14.2345 21.4542 14.2345 20.5833C14.2345 19.7125 14.947 19 15.8178 19C16.6887 19 17.4012 19.7125 17.4012 20.5833C17.4012 21.4542 16.7045 22.1667 15.8178 22.1667ZM21.3595 22.1667C20.4728 22.1667 19.7762 21.4542 19.7762 20.5833C19.7762 19.7125 20.4887 19 21.3595 19C22.2303 19 22.9428 19.7125 22.9428 20.5833C22.9428 21.4542 22.2303 22.1667 21.3595 22.1667Z" fill="#FF3535"/>
<path d="M34.8004 10.7521V17.0855C34.8004 20.2521 33.8188 22.4055 31.8554 23.593C31.3804 23.878 30.8263 23.498 30.8263 22.9438L30.8421 17.0855C30.8421 10.7521 27.2163 7.1263 20.8829 7.1263L11.2404 7.14214C10.6863 7.14214 10.3063 6.58797 10.5913 6.11297C11.7788 4.14964 13.9321 3.16797 17.0829 3.16797H27.2163C32.2671 3.16797 34.8004 5.7013 34.8004 10.7521Z" fill="#FF3535"/>
</svg>
