<svg width="25" height="25" viewBox="0 0 25 25" fill="none" xmlns="http://www.w3.org/2000/svg">
<path d="M20.7361 6.99931C22.3108 6.99931 23.5873 5.72277 23.5873 4.14809C23.5873 2.57341 22.3108 1.29688 20.7361 1.29688C19.1614 1.29688 17.8849 2.57341 17.8849 4.14809C17.8849 5.72277 19.1614 6.99931 20.7361 6.99931Z" fill="#FF5555"/>
<path d="M19.7408 8.45058C18.113 8.09806 16.7859 6.77095 16.4334 5.14316C16.2986 4.51071 16.2882 3.899 16.4023 3.31839C16.5371 2.67557 16.0601 2.07422 15.3966 2.07422H7.25764C4.39605 2.07422 2.07361 4.39666 2.07361 7.25825V14.4641C2.07361 17.3256 4.39605 19.6481 7.25764 19.6481H8.81285C9.10315 19.6481 9.4764 19.8347 9.64229 20.0628L11.1975 22.126C11.8818 23.0384 13.0015 23.0384 13.6858 22.126L15.241 20.0628C15.438 19.8036 15.7387 19.6481 16.0705 19.6481H17.6361C20.4977 19.6481 22.8097 17.336 22.8097 14.4744V9.48738C22.8097 8.83419 22.2084 8.35726 21.5656 8.48168C20.9849 8.58536 20.3732 8.58536 19.7408 8.45058ZM8.29444 12.4423C7.71383 12.4423 7.25764 11.9757 7.25764 11.4055C7.25764 10.8352 7.71383 10.3687 8.29444 10.3687C8.86469 10.3687 9.33125 10.8352 9.33125 11.4055C9.33125 11.9757 8.87506 12.4423 8.29444 12.4423ZM12.4417 12.4423C11.8611 12.4423 11.4049 11.9757 11.4049 11.4055C11.4049 10.8352 11.8611 10.3687 12.4417 10.3687C13.0119 10.3687 13.4785 10.8352 13.4785 11.4055C13.4785 11.9757 13.0223 12.4423 12.4417 12.4423ZM16.5889 12.4423C16.0083 12.4423 15.5521 11.9757 15.5521 11.4055C15.5521 10.8352 16.0083 10.3687 16.5889 10.3687C17.1591 10.3687 17.6257 10.8352 17.6257 11.4055C17.6257 11.9757 17.1695 12.4423 16.5889 12.4423Z" fill="#FF5555"/>
</svg>
