<svg width="45" height="46" viewBox="0 0 45 46" fill="none" xmlns="http://www.w3.org/2000/svg">
<path d="M35.3629 32.4605H39.0702C40.1824 32.4605 40.9238 31.719 40.9238 30.6068V25.0458C40.9238 23.3775 39.6263 21.8946 38.1433 21.5238C34.8068 20.597 29.8019 19.4848 29.8019 19.4848C29.8019 19.4848 27.3921 16.8897 25.7238 15.2214C24.797 14.4799 23.6848 13.9238 22.3872 13.9238H9.41157C8.29938 13.9238 7.37255 14.6653 6.81645 15.5921L4.22132 20.9677C3.97586 21.6837 3.85059 22.4353 3.85059 23.1921V30.6068C3.85059 31.719 4.59205 32.4605 5.70425 32.4605H9.41157" stroke="#FF3A3A" stroke-width="3.17771" stroke-linecap="round" stroke-linejoin="round"/>
<path d="M13.1194 36.1705C15.1669 36.1705 16.8268 34.5107 16.8268 32.4632C16.8268 30.4157 15.1669 28.7559 13.1194 28.7559C11.0719 28.7559 9.41211 30.4157 9.41211 32.4632C9.41211 34.5107 11.0719 36.1705 13.1194 36.1705Z" stroke="#FF3A3A" stroke-width="3.17771" stroke-linecap="round" stroke-linejoin="round"/>
<path d="M16.8262 32.4648H27.9481" stroke="#FF3A3A" stroke-width="3.17771" stroke-linecap="round" stroke-linejoin="round"/>
<path d="M31.6546 36.1705C33.7021 36.1705 35.3619 34.5107 35.3619 32.4632C35.3619 30.4157 33.7021 28.7559 31.6546 28.7559C29.6071 28.7559 27.9473 30.4157 27.9473 32.4632C27.9473 34.5107 29.6071 36.1705 31.6546 36.1705Z" stroke="#FF3A3A" stroke-width="3.17771" stroke-linecap="round" stroke-linejoin="round"/>
</svg>
