<svg width="39" height="39" viewBox="0 0 39 39" fill="none" xmlns="http://www.w3.org/2000/svg">
<path d="M14.624 3.25C10.3665 3.25 6.90527 6.71125 6.90527 10.9688C6.90527 15.145 10.1715 18.525 14.429 18.6713C14.559 18.655 14.689 18.655 14.7865 18.6713C14.819 18.6713 14.8353 18.6713 14.8678 18.6713C14.884 18.6713 14.884 18.6713 14.9003 18.6713C19.0603 18.525 22.3265 15.145 22.3428 10.9688C22.3428 6.71125 18.8815 3.25 14.624 3.25Z" fill="#FF3535"/>
<path d="M22.8796 22.9973C18.3458 19.9748 10.9521 19.9748 6.38582 22.9973C4.32207 24.3786 3.18457 26.2473 3.18457 28.2461C3.18457 30.2448 4.32207 32.0973 6.36957 33.4623C8.64457 34.9898 11.6346 35.7536 14.6246 35.7536C17.6146 35.7536 20.6046 34.9898 22.8796 33.4623C24.9271 32.0811 26.0646 30.2286 26.0646 28.2136C26.0483 26.2148 24.9271 24.3623 22.8796 22.9973Z" fill="#FF3535"/>
<path d="M32.4837 11.9274C32.7437 15.0799 30.5012 17.8424 27.3975 18.2162C27.3812 18.2162 27.3812 18.2162 27.365 18.2162H27.3162C27.2187 18.2162 27.1212 18.2162 27.04 18.2487C25.4637 18.3299 24.0175 17.8262 22.9287 16.8999C24.6025 15.4049 25.5612 13.1624 25.3662 10.7249C25.2525 9.40867 24.7975 8.20617 24.115 7.18242C24.7325 6.87367 25.4475 6.67867 26.1787 6.61367C29.3637 6.33742 32.2075 8.70992 32.4837 11.9274Z" fill="#FF3535"/>
<path d="M35.7334 26.9594C35.6034 28.5356 34.5959 29.9006 32.9059 30.8269C31.2809 31.7206 29.2334 32.1431 27.2021 32.0944C28.3721 31.0381 29.0546 29.7219 29.1846 28.3244C29.3471 26.3094 28.3884 24.3756 26.4709 22.8319C25.3822 21.9706 24.1146 21.2881 22.7334 20.7844C26.3246 19.7444 30.8421 20.4431 33.6209 22.6856C35.1159 23.8881 35.8796 25.3994 35.7334 26.9594Z" fill="#FF3535"/>
</svg>
