<svg width="25" height="26" viewBox="0 0 25 26" fill="none" xmlns="http://www.w3.org/2000/svg">
<path d="M20.8399 9.56024C18.9633 9.56024 18.1961 8.23313 19.1292 6.60534C19.6683 5.66185 19.3469 4.45915 18.4034 3.92001L16.6098 2.89358C15.7907 2.40628 14.7331 2.69658 14.2458 3.51566L14.1318 3.71265C13.1987 5.34044 11.6642 5.34044 10.7207 3.71265L10.6066 3.51566C10.1401 2.69658 9.08254 2.40628 8.26346 2.89358L6.46979 3.92001C5.52629 4.45915 5.20488 5.67222 5.74402 6.61571C6.68752 8.23313 5.92028 9.56024 4.04366 9.56024C2.96538 9.56024 2.07373 10.4415 2.07373 11.5302V13.3549C2.07373 14.4332 2.95502 15.3249 4.04366 15.3249C5.92028 15.3249 6.68752 16.652 5.74402 18.2798C5.20488 19.2233 5.52629 20.426 6.46979 20.9651L8.26346 21.9915C9.08254 22.4788 10.1401 22.1885 10.6274 21.3695L10.7414 21.1725C11.6746 19.5447 13.209 19.5447 14.1525 21.1725L14.2666 21.3695C14.7539 22.1885 15.8114 22.4788 16.6305 21.9915L18.4242 20.9651C19.3677 20.426 19.6891 19.2129 19.1499 18.2798C18.2064 16.652 18.9737 15.3249 20.8503 15.3249C21.9286 15.3249 22.8202 14.4436 22.8202 13.3549V11.5302C22.8099 10.4519 21.9286 9.56024 20.8399 9.56024ZM12.4418 15.8122C10.5859 15.8122 9.07217 14.2984 9.07217 12.4426C9.07217 10.5867 10.5859 9.07294 12.4418 9.07294C14.2977 9.07294 15.8114 10.5867 15.8114 12.4426C15.8114 14.2984 14.2977 15.8122 12.4418 15.8122Z" fill="white"/>
</svg>
