<svg width="33" height="33" viewBox="0 0 33 33" fill="none" xmlns="http://www.w3.org/2000/svg">
<path d="M24.9854 5.55287L17.5734 2.77671C16.8052 2.4937 15.5519 2.4937 14.7837 2.77671L7.37167 5.55287C5.94316 6.09192 4.78418 7.76301 4.78418 9.28585V20.2018C4.78418 21.2934 5.49843 22.7354 6.37441 23.3823L13.7865 28.9211C15.0937 29.9049 17.2365 29.9049 18.5437 28.9211L25.9557 23.3823C26.8317 22.7219 27.546 21.2934 27.546 20.2018V9.28585C27.5595 7.76301 26.4005 6.09192 24.9854 5.55287ZM20.8616 13.0997L15.0667 18.8946C14.8646 19.0967 14.6085 19.1911 14.3525 19.1911C14.0964 19.1911 13.8404 19.0967 13.6382 18.8946L11.482 16.7114C11.0912 16.3206 11.0912 15.6737 11.482 15.2829C11.8728 14.8921 12.5197 14.8921 12.9105 15.2829L14.366 16.7384L19.4466 11.6577C19.8374 11.2669 20.4843 11.2669 20.8751 11.6577C21.2659 12.0485 21.2659 12.7089 20.8616 13.0997Z" fill="#0D0D0D"/>
</svg>
