<svg width="38" height="38" viewBox="0 0 38 38" fill="none" xmlns="http://www.w3.org/2000/svg">
<path d="M21.7388 5.55914L24.5254 11.1325C24.9054 11.9083 25.9188 12.6525 26.7738 12.795L31.8246 13.6341C35.0546 14.1725 35.8146 16.5158 33.4871 18.8275L29.5604 22.7541C28.8954 23.4191 28.5313 24.7016 28.7371 25.62L29.8613 30.4808C30.7479 34.3283 28.7054 35.8166 25.3013 33.8058L20.5671 31.0033C19.7121 30.4966 18.3029 30.4966 17.4321 31.0033L12.6979 33.8058C9.30961 35.8166 7.25128 34.3125 8.13795 30.4808L9.26211 25.62C9.46795 24.7016 9.10378 23.4191 8.43878 22.7541L4.51211 18.8275C2.20045 16.5158 2.94461 14.1725 6.17461 13.6341L11.2254 12.795C12.0646 12.6525 13.0779 11.9083 13.4579 11.1325L16.2446 5.55914C17.7646 2.53497 20.2346 2.53497 21.7388 5.55914Z" fill="#FF3535"/>
</svg>
