<svg width="25" height="24" viewBox="0 0 25 24" fill="none" xmlns="http://www.w3.org/2000/svg">
<path d="M11.7329 0.194244C8.76648 0.383015 5.88485 1.76219 3.9047 3.94268C3.42314 4.47046 2.95314 5.083 2.60257 5.63775C2.29052 6.13087 1.75503 7.2134 1.55856 7.73734C0.580034 10.3917 0.572329 13.2579 1.547 15.9045C1.63175 16.1357 1.85519 16.6403 2.04396 17.0217C2.94544 18.8671 4.37469 20.4774 6.13141 21.6254C6.67461 21.9798 7.81108 22.5577 8.38124 22.7657C9.75656 23.2704 10.9624 23.4861 12.4263 23.49C13.3393 23.4938 13.8517 23.4515 14.5837 23.3166C18.205 22.6502 21.3062 20.3079 22.9242 17.0217C23.7833 15.2804 24.1377 13.7549 24.1339 11.8209C24.13 9.89085 23.7602 8.32676 22.905 6.62013C21.4256 3.66915 18.8329 1.52334 15.647 0.61031C14.4643 0.271294 12.9811 0.113342 11.7329 0.194244ZM13.6668 2.53653C16.7911 2.94875 19.4416 4.82489 20.8593 7.63332C21.0943 8.09562 21.3948 8.85069 21.4372 9.07414C21.5181 9.51332 21.156 9.98717 20.686 10.0527C20.4394 10.0873 20.2853 10.0295 19.8346 9.74831C17.7851 8.4616 15.2733 7.79512 12.4841 7.79512C9.69492 7.79512 7.10223 8.48856 5.09125 9.77143C4.67519 10.0372 4.47871 10.0989 4.23215 10.0488C3.76601 9.95249 3.44625 9.47864 3.54257 9.02791C3.63502 8.59258 4.12429 7.52545 4.50953 6.90906C5.31854 5.61464 6.42034 4.53595 7.71091 3.76932C8.82042 3.11055 10.1341 2.66752 11.4054 2.52112C11.9101 2.46334 13.1737 2.47489 13.6668 2.53653ZM13.0042 9.70209C13.5551 9.84848 14.0867 10.2376 14.3679 10.7037C14.5529 11.0081 14.68 11.4704 14.68 11.8363C14.68 12.445 14.472 12.942 14.0289 13.385C13.5897 13.8242 13.0889 14.0361 12.4957 14.0361C11.8716 14.0361 11.39 13.8358 10.9393 13.385C10.3961 12.8418 10.1765 12.1137 10.3306 11.3702C10.4885 10.6036 11.1858 9.887 11.9563 9.69823C12.2375 9.63274 12.7345 9.63274 13.0042 9.70209ZM5.42641 13.9976C6.16994 14.0746 6.75936 14.2403 7.41813 14.5523C9.19411 15.396 10.3152 16.7944 10.8237 18.7939C11.0471 19.6684 10.9893 20.2848 10.6619 20.5737C10.4962 20.7162 10.3113 20.7779 10.0262 20.7779C9.1787 20.7779 7.51829 19.9496 6.39723 18.9672C6.25854 18.8478 6.09674 18.7091 6.0351 18.6552C5.84248 18.4934 5.23764 17.8038 4.95256 17.4224C4.51724 16.8407 4.04724 16.0124 3.81994 15.4307C3.55412 14.7603 3.92011 14.1208 4.63281 14.0014C4.91404 13.9552 5.0142 13.9552 5.42641 13.9976ZM20.5896 14.0785C20.8169 14.1632 21.0789 14.4098 21.1714 14.6217C21.2022 14.7026 21.2292 14.8721 21.2292 15.0031C21.2292 15.1995 21.1983 15.3074 21.0673 15.6117C20.2083 17.5649 18.648 19.2292 16.7796 20.1692C16.2171 20.4543 15.828 20.6122 15.489 20.7008C14.5182 20.9474 14.0058 20.6084 14.0135 19.7185C14.0174 19.3332 14.0713 19.0327 14.2408 18.4587C14.8341 16.4323 16.2441 14.9414 18.1934 14.2904C19.1411 13.9745 20.0888 13.8897 20.5896 14.0785Z" fill="#949494"/>
</svg>
