<svg width="19" height="19" viewBox="0 0 19 19" fill="none" xmlns="http://www.w3.org/2000/svg">
<path d="M8.76497 0.0171604C6.38237 0.168779 4.06784 1.27654 2.47738 3.0279C2.09059 3.45182 1.71309 3.94381 1.43151 4.38939C1.18087 4.78546 0.750766 5.65495 0.592957 6.07578C-0.192992 8.20774 -0.19918 10.5099 0.583674 12.6357C0.651749 12.8213 0.831217 13.2267 0.982838 13.533C1.7069 15.0152 2.85488 16.3086 4.26588 17.2307C4.70217 17.5154 5.61499 17.9795 6.07294 18.1466C7.1776 18.552 8.14612 18.7252 9.32194 18.7283C10.0553 18.7314 10.4668 18.6974 11.0547 18.5891C13.9634 18.0538 16.4543 16.1724 17.7539 13.533C18.4439 12.1344 18.7286 10.9091 18.7255 9.35572C18.7224 7.80548 18.4253 6.5492 17.7384 5.17843C16.5502 2.80821 14.4677 1.08469 11.9088 0.351343C10.9588 0.0790462 9.76752 -0.047821 8.76497 0.0171604ZM10.3183 1.89849C12.8278 2.22958 14.9566 3.7365 16.0953 5.99223C16.2841 6.36355 16.5254 6.97003 16.5595 7.1495C16.6245 7.50224 16.3336 7.88284 15.9561 7.93544C15.7581 7.96329 15.6343 7.91688 15.2723 7.691C13.6261 6.6575 11.6086 6.12219 9.36836 6.12219C7.12809 6.12219 5.04564 6.67916 3.43042 7.70956C3.09624 7.92307 2.93843 7.97258 2.74039 7.93235C2.36598 7.85499 2.10916 7.4744 2.18652 7.11236C2.26078 6.76271 2.65375 5.90559 2.96318 5.41051C3.61298 4.37082 4.49795 3.50442 5.53454 2.88866C6.42569 2.35954 7.48084 2.00369 8.50196 1.88611C8.90731 1.8397 9.92224 1.84898 10.3183 1.89849ZM9.78609 7.65386C10.2286 7.77145 10.6556 8.08397 10.8815 8.45838C11.03 8.70283 11.1321 9.07414 11.1321 9.3681C11.1321 9.857 10.965 10.2562 10.6092 10.612C10.2564 10.9648 9.85416 11.1349 9.37764 11.1349C8.87637 11.1349 8.48958 10.974 8.12755 10.612C7.69125 10.1757 7.51488 9.59089 7.63865 8.99369C7.76552 8.37793 8.32558 7.80239 8.94444 7.65077C9.17032 7.59817 9.56949 7.59817 9.78609 7.65386ZM3.69962 11.104C4.29682 11.1659 4.77025 11.2989 5.29937 11.5496C6.72584 12.2272 7.62627 13.3505 8.03472 14.9564C8.21419 15.6588 8.16778 16.1539 7.90476 16.3859C7.77171 16.5004 7.62318 16.5499 7.3942 16.5499C6.71346 16.5499 5.37982 15.8847 4.47938 15.0956C4.36799 14.9997 4.23803 14.8883 4.18852 14.845C4.03381 14.715 3.548 14.1612 3.31903 13.8548C2.96937 13.3876 2.59187 12.7223 2.4093 12.2551C2.1958 11.7167 2.48976 11.203 3.0622 11.1071C3.28808 11.07 3.36853 11.07 3.69962 11.104ZM15.8787 11.169C16.0613 11.2371 16.2717 11.4351 16.346 11.6053C16.3707 11.6703 16.3924 11.8064 16.3924 11.9116C16.3924 12.0694 16.3676 12.1561 16.2624 12.4005C15.5724 13.9693 14.3192 15.306 12.8185 16.061C12.3667 16.29 12.0542 16.4169 11.7819 16.4881C11.0021 16.6861 10.5906 16.4138 10.5968 15.699C10.5999 15.3896 10.6432 15.1482 10.7794 14.6872C11.2559 13.0596 12.3884 11.8621 13.9541 11.3392C14.7153 11.0854 15.4765 11.0174 15.8787 11.169Z" fill="white"/>
</svg>
