<svg width="45" height="46" viewBox="0 0 45 46" fill="none" xmlns="http://www.w3.org/2000/svg">
<path d="M5.82422 26.902H11.3852C12.3685 26.902 13.3114 27.2926 14.0067 27.9879C14.7019 28.6831 15.0925 29.6261 15.0925 30.6093V36.1703C15.0925 37.1536 14.7019 38.0965 14.0067 38.7918C13.3114 39.4871 12.3685 39.8776 11.3852 39.8776H9.53154C8.5483 39.8776 7.60533 39.4871 6.91007 38.7918C6.21481 38.0965 5.82422 37.1536 5.82422 36.1703V23.1947C5.82422 18.7701 7.58188 14.5267 10.7105 11.398C13.8392 8.26938 18.0826 6.51172 22.5072 6.51172C26.9318 6.51172 31.1752 8.26938 34.3038 11.398C37.4325 14.5267 39.1901 18.7701 39.1901 23.1947V36.1703C39.1901 37.1536 38.7996 38.0965 38.1043 38.7918C37.409 39.4871 36.4661 39.8776 35.4828 39.8776H33.6292C32.6459 39.8776 31.7029 39.4871 31.0077 38.7918C30.3124 38.0965 29.9218 37.1536 29.9218 36.1703V30.6093C29.9218 29.6261 30.3124 28.6831 31.0077 27.9879C31.7029 27.2926 32.6459 26.902 33.6292 26.902H39.1901" stroke="#FF3A3A" stroke-width="3.17771" stroke-linecap="round" stroke-linejoin="round"/>
</svg>
