<svg width="35" height="35" viewBox="0 0 35 35" fill="none" xmlns="http://www.w3.org/2000/svg">
<path d="M30.7264 7.62643C28.3785 7.3931 26.0306 7.2181 23.6681 7.08685V7.07227L23.3473 5.17643C23.1285 3.83477 22.8077 1.82227 19.3952 1.82227H15.5744C12.1764 1.82227 11.8556 3.74727 11.6223 5.16185L11.316 7.02852C9.95977 7.11602 8.60352 7.20352 7.24727 7.33477L4.27227 7.62643C3.65977 7.68477 3.22227 8.22435 3.2806 8.82227C3.33894 9.42018 3.86394 9.85768 4.47644 9.79935L7.45144 9.50768C15.0931 8.74935 22.7931 9.04102 30.5223 9.81393C30.566 9.81393 30.5952 9.81393 30.6389 9.81393C31.1931 9.81393 31.6744 9.39102 31.7327 8.82227C31.7764 8.22435 31.3389 7.68477 30.7264 7.62643Z" fill="white"/>
<path d="M28.0433 11.8715C27.6933 11.5069 27.212 11.3027 26.7162 11.3027H8.28289C7.78705 11.3027 7.29122 11.5069 6.9558 11.8715C6.62039 12.2361 6.4308 12.7319 6.45997 13.2423L7.36414 28.2048C7.52455 30.4215 7.72872 33.1923 12.8183 33.1923H22.1808C27.2704 33.1923 27.4746 30.4361 27.635 28.2048L28.5391 13.2569C28.5683 12.7319 28.3787 12.2361 28.0433 11.8715ZM19.9204 25.8861H15.0641C14.4662 25.8861 13.9704 25.3902 13.9704 24.7923C13.9704 24.1944 14.4662 23.6986 15.0641 23.6986H19.9204C20.5183 23.6986 21.0141 24.1944 21.0141 24.7923C21.0141 25.3902 20.5183 25.8861 19.9204 25.8861ZM21.1454 20.0527H13.8537C13.2558 20.0527 12.76 19.5569 12.76 18.959C12.76 18.3611 13.2558 17.8652 13.8537 17.8652H21.1454C21.7433 17.8652 22.2391 18.3611 22.2391 18.959C22.2391 19.5569 21.7433 20.0527 21.1454 20.0527Z" fill="white"/>
</svg>
