<svg width="36" height="36" viewBox="0 0 36 36" fill="none" xmlns="http://www.w3.org/2000/svg">
<path d="M17.9121 6.94141C25.047 6.94141 30.8535 12.7479 30.8535 19.8828C30.8535 27.0178 25.047 32.8392 17.9121 32.8392C10.7771 32.8392 4.97064 27.0327 4.97064 19.8978C4.97064 12.7628 10.7771 6.94141 17.9121 6.94141ZM16.7926 19.4052C16.7926 20.0172 17.3001 20.5247 17.9121 20.5247C18.5241 20.5247 19.0316 20.0172 19.0316 19.4052V11.9418C19.0316 11.3299 18.5241 10.8223 17.9121 10.8223C17.3001 10.8223 16.7926 11.3299 16.7926 11.9418V19.4052Z" fill="#858282"/>
<path d="M13.5984 5.14874H22.2261C22.8231 5.14874 23.3008 4.67109 23.3008 4.07402C23.3008 3.47696 22.8231 2.98438 22.2261 2.98438H13.5984C13.0014 2.98438 12.5237 3.46203 12.5237 4.0591C12.5237 4.65616 13.0014 5.14874 13.5984 5.14874Z" fill="#858282"/>
</svg>
