<svg width="19" height="19" viewBox="0 0 19 19" fill="none" xmlns="http://www.w3.org/2000/svg">
<path d="M6.90575 8.19551C6.83036 8.18797 6.73988 8.18797 6.65694 8.19551C4.8625 8.13519 3.4375 6.66495 3.4375 4.85543C3.4375 3.00821 4.93036 1.50781 6.78512 1.50781C8.63234 1.50781 10.1327 3.00821 10.1327 4.85543C10.1252 6.66495 8.7002 8.13519 6.90575 8.19551Z" stroke="white" stroke-width="1.13095" stroke-linecap="round" stroke-linejoin="round"/>
<path d="M12.3715 3.01562C13.8342 3.01562 15.0103 4.19935 15.0103 5.65451C15.0103 7.07951 13.8794 8.24062 12.4695 8.2934C12.4092 8.28586 12.3413 8.28586 12.2734 8.2934" stroke="white" stroke-width="1.13095" stroke-linecap="round" stroke-linejoin="round"/>
<path d="M3.13603 10.9782C1.31143 12.1996 1.31143 14.1901 3.13603 15.404C5.20944 16.7913 8.60984 16.7913 10.6833 15.404C12.5079 14.1825 12.5079 12.1921 10.6833 10.9782C8.61738 9.59842 5.21698 9.59842 3.13603 10.9782Z" stroke="white" stroke-width="1.13095" stroke-linecap="round" stroke-linejoin="round"/>
<path d="M13.8281 15.0785C14.371 14.9654 14.8837 14.7467 15.3059 14.4225C16.4821 13.5404 16.4821 12.0852 15.3059 11.2031C14.8912 10.8864 14.3861 10.6753 13.8507 10.5547" stroke="white" stroke-width="1.13095" stroke-linecap="round" stroke-linejoin="round"/>
</svg>
