<svg width="24" height="24" viewBox="0 0 24 24" fill="none" xmlns="http://www.w3.org/2000/svg">
<path d="M9.38117 10.7323C9.28402 10.7225 9.16743 10.7225 9.06056 10.7323C6.74831 10.6545 4.91211 8.76004 4.91211 6.42836C4.91211 4.0481 6.83575 2.11475 9.22572 2.11475C11.606 2.11475 13.5393 4.0481 13.5393 6.42836C13.5296 8.76004 11.6934 10.6545 9.38117 10.7323Z" stroke="#949494" stroke-width="1.4573" stroke-linecap="round" stroke-linejoin="round"/>
<path d="M16.4232 4.05811C18.308 4.05811 19.8235 5.58342 19.8235 7.45848C19.8235 9.29468 18.3662 10.7908 16.5495 10.8588C16.4718 10.8491 16.3843 10.8491 16.2969 10.8588" stroke="#949494" stroke-width="1.4573" stroke-linecap="round" stroke-linejoin="round"/>
<path d="M4.5231 14.3173C2.17199 15.8912 2.17199 18.4561 4.5231 20.0202C7.19482 21.8079 11.5764 21.8079 14.2482 20.0202C16.5993 18.4463 16.5993 15.8815 14.2482 14.3173C11.5862 12.5394 7.20454 12.5394 4.5231 14.3173Z" stroke="#949494" stroke-width="1.4573" stroke-linecap="round" stroke-linejoin="round"/>
<path d="M18.2988 19.6026C18.9983 19.4569 19.659 19.1752 20.203 18.7574C21.7186 17.6207 21.7186 15.7457 20.203 14.609C19.6687 14.2009 19.0178 13.9289 18.328 13.7734" stroke="#949494" stroke-width="1.4573" stroke-linecap="round" stroke-linejoin="round"/>
</svg>
